<mxfile host="Electron" agent="Mozilla/5.0 (Macintosh; Intel Mac OS X 10_15_7) AppleWebKit/537.36 (KHTML, like Gecko) draw.io/28.2.5 Chrome/138.0.7204.251 Electron/37.6.1 Safari/537.36" version="28.2.5">
  <diagram name="Page-1" id="lBu7Da-pjfj4i_CrpBQD">
    <mxGraphModel dx="2645" dy="2804" grid="1" gridSize="10" guides="1" tooltips="1" connect="1" arrows="1" fold="1" page="1" pageScale="1" pageWidth="850" pageHeight="1100" math="0" shadow="0">
      <root>
        <mxCell id="0" />
        <mxCell id="1" parent="0" />
        <mxCell id="G9q0YJzkAukDp6qlGBMy-5" value="Directors" style="shape=table;startSize=30;container=1;collapsible=0;childLayout=tableLayout;fixedRows=1;rowLines=0;fontStyle=0;strokeColor=default;fontSize=16;" parent="1" vertex="1">
          <mxGeometry x="-400" y="-380" width="210" height="150" as="geometry" />
        </mxCell>
        <mxCell id="G9q0YJzkAukDp6qlGBMy-6" value="" style="shape=tableRow;horizontal=0;startSize=0;swimlaneHead=0;swimlaneBody=0;top=0;left=0;bottom=0;right=0;collapsible=0;dropTarget=0;fillColor=none;points=[[0,0.5],[1,0.5]];portConstraint=eastwest;strokeColor=inherit;fontSize=16;" parent="G9q0YJzkAukDp6qlGBMy-5" vertex="1">
          <mxGeometry y="30" width="210" height="30" as="geometry" />
        </mxCell>
        <mxCell id="G9q0YJzkAukDp6qlGBMy-7" value="PK" style="shape=partialRectangle;html=1;whiteSpace=wrap;connectable=0;fillColor=none;top=0;left=0;bottom=0;right=0;overflow=hidden;pointerEvents=1;strokeColor=inherit;fontSize=16;" parent="G9q0YJzkAukDp6qlGBMy-6" vertex="1">
          <mxGeometry width="47" height="30" as="geometry">
            <mxRectangle width="47" height="30" as="alternateBounds" />
          </mxGeometry>
        </mxCell>
        <mxCell id="G9q0YJzkAukDp6qlGBMy-8" value="&lt;span style=&quot;caret-color: rgb(0, 0, 0); font-family: -webkit-standard; font-size: medium;&quot;&gt;&lt;font style=&quot;color: rgb(255, 255, 255);&quot;&gt;DirectorID&lt;/font&gt;&lt;/span&gt;&lt;span style=&quot;caret-color: rgb(0, 0, 0); color: rgb(0, 0, 0); font-family: -webkit-standard; font-size: medium;&quot;&gt;&amp;nbsp;&lt;/span&gt;" style="shape=partialRectangle;html=1;whiteSpace=wrap;connectable=0;fillColor=none;top=0;left=0;bottom=0;right=0;align=left;spacingLeft=6;overflow=hidden;strokeColor=inherit;fontSize=16;" parent="G9q0YJzkAukDp6qlGBMy-6" vertex="1">
          <mxGeometry x="47" width="163" height="30" as="geometry">
            <mxRectangle width="163" height="30" as="alternateBounds" />
          </mxGeometry>
        </mxCell>
        <mxCell id="G9q0YJzkAukDp6qlGBMy-9" value="" style="shape=tableRow;horizontal=0;startSize=0;swimlaneHead=0;swimlaneBody=0;top=0;left=0;bottom=0;right=0;collapsible=0;dropTarget=0;fillColor=none;points=[[0,0.5],[1,0.5]];portConstraint=eastwest;strokeColor=inherit;fontSize=16;" parent="G9q0YJzkAukDp6qlGBMy-5" vertex="1">
          <mxGeometry y="60" width="210" height="30" as="geometry" />
        </mxCell>
        <mxCell id="G9q0YJzkAukDp6qlGBMy-10" value="" style="shape=partialRectangle;html=1;whiteSpace=wrap;connectable=0;fillColor=none;top=0;left=0;bottom=0;right=0;overflow=hidden;strokeColor=inherit;fontSize=16;" parent="G9q0YJzkAukDp6qlGBMy-9" vertex="1">
          <mxGeometry width="47" height="30" as="geometry">
            <mxRectangle width="47" height="30" as="alternateBounds" />
          </mxGeometry>
        </mxCell>
        <mxCell id="G9q0YJzkAukDp6qlGBMy-11" value="name" style="shape=partialRectangle;html=1;whiteSpace=wrap;connectable=0;fillColor=none;top=0;left=0;bottom=0;right=0;align=left;spacingLeft=6;overflow=hidden;strokeColor=inherit;fontSize=16;" parent="G9q0YJzkAukDp6qlGBMy-9" vertex="1">
          <mxGeometry x="47" width="163" height="30" as="geometry">
            <mxRectangle width="163" height="30" as="alternateBounds" />
          </mxGeometry>
        </mxCell>
        <mxCell id="G9q0YJzkAukDp6qlGBMy-12" value="" style="shape=tableRow;horizontal=0;startSize=0;swimlaneHead=0;swimlaneBody=0;top=0;left=0;bottom=0;right=0;collapsible=0;dropTarget=0;fillColor=none;points=[[0,0.5],[1,0.5]];portConstraint=eastwest;strokeColor=inherit;fontSize=16;" parent="G9q0YJzkAukDp6qlGBMy-5" vertex="1">
          <mxGeometry y="90" width="210" height="30" as="geometry" />
        </mxCell>
        <mxCell id="G9q0YJzkAukDp6qlGBMy-13" value="" style="shape=partialRectangle;html=1;whiteSpace=wrap;connectable=0;fillColor=none;top=0;left=0;bottom=0;right=0;overflow=hidden;strokeColor=inherit;fontSize=16;" parent="G9q0YJzkAukDp6qlGBMy-12" vertex="1">
          <mxGeometry width="47" height="30" as="geometry">
            <mxRectangle width="47" height="30" as="alternateBounds" />
          </mxGeometry>
        </mxCell>
        <mxCell id="G9q0YJzkAukDp6qlGBMy-14" value="email" style="shape=partialRectangle;html=1;whiteSpace=wrap;connectable=0;fillColor=none;top=0;left=0;bottom=0;right=0;align=left;spacingLeft=6;overflow=hidden;strokeColor=inherit;fontSize=16;" parent="G9q0YJzkAukDp6qlGBMy-12" vertex="1">
          <mxGeometry x="47" width="163" height="30" as="geometry">
            <mxRectangle width="163" height="30" as="alternateBounds" />
          </mxGeometry>
        </mxCell>
        <mxCell id="G9q0YJzkAukDp6qlGBMy-16" style="shape=tableRow;horizontal=0;startSize=0;swimlaneHead=0;swimlaneBody=0;top=0;left=0;bottom=0;right=0;collapsible=0;dropTarget=0;fillColor=none;points=[[0,0.5],[1,0.5]];portConstraint=eastwest;strokeColor=inherit;fontSize=16;" parent="G9q0YJzkAukDp6qlGBMy-5" vertex="1">
          <mxGeometry y="120" width="210" height="30" as="geometry" />
        </mxCell>
        <mxCell id="G9q0YJzkAukDp6qlGBMy-17" value="FK" style="shape=partialRectangle;html=1;whiteSpace=wrap;connectable=0;fillColor=none;top=0;left=0;bottom=0;right=0;overflow=hidden;strokeColor=inherit;fontSize=16;" parent="G9q0YJzkAukDp6qlGBMy-16" vertex="1">
          <mxGeometry width="47" height="30" as="geometry">
            <mxRectangle width="47" height="30" as="alternateBounds" />
          </mxGeometry>
        </mxCell>
        <mxCell id="G9q0YJzkAukDp6qlGBMy-18" value="DepartmentID" style="shape=partialRectangle;html=1;whiteSpace=wrap;connectable=0;fillColor=none;top=0;left=0;bottom=0;right=0;align=left;spacingLeft=6;overflow=hidden;strokeColor=inherit;fontSize=16;" parent="G9q0YJzkAukDp6qlGBMy-16" vertex="1">
          <mxGeometry x="47" width="163" height="30" as="geometry">
            <mxRectangle width="163" height="30" as="alternateBounds" />
          </mxGeometry>
        </mxCell>
        <mxCell id="G9q0YJzkAukDp6qlGBMy-313" style="edgeStyle=orthogonalEdgeStyle;rounded=0;orthogonalLoop=1;jettySize=auto;html=1;entryX=0.5;entryY=1;entryDx=0;entryDy=0;" parent="1" target="G9q0YJzkAukDp6qlGBMy-314" edge="1">
          <mxGeometry relative="1" as="geometry">
            <mxPoint x="470" y="90" as="targetPoint" />
            <mxPoint x="590" y="300" as="sourcePoint" />
          </mxGeometry>
        </mxCell>
        <mxCell id="G9q0YJzkAukDp6qlGBMy-69" value="Managers" style="shape=table;startSize=30;container=1;collapsible=0;childLayout=tableLayout;fixedRows=1;rowLines=0;fontStyle=0;strokeColor=default;fontSize=16;" parent="1" vertex="1">
          <mxGeometry x="320" y="340" width="250" height="240" as="geometry" />
        </mxCell>
        <mxCell id="G9q0YJzkAukDp6qlGBMy-70" value="" style="shape=tableRow;horizontal=0;startSize=0;swimlaneHead=0;swimlaneBody=0;top=0;left=0;bottom=0;right=0;collapsible=0;dropTarget=0;fillColor=none;points=[[0,0.5],[1,0.5]];portConstraint=eastwest;strokeColor=inherit;fontSize=16;" parent="G9q0YJzkAukDp6qlGBMy-69" vertex="1">
          <mxGeometry y="30" width="250" height="30" as="geometry" />
        </mxCell>
        <mxCell id="G9q0YJzkAukDp6qlGBMy-71" value="PK" style="shape=partialRectangle;html=1;whiteSpace=wrap;connectable=0;fillColor=none;top=0;left=0;bottom=0;right=0;overflow=hidden;pointerEvents=1;strokeColor=inherit;fontSize=16;" parent="G9q0YJzkAukDp6qlGBMy-70" vertex="1">
          <mxGeometry width="56" height="30" as="geometry">
            <mxRectangle width="56" height="30" as="alternateBounds" />
          </mxGeometry>
        </mxCell>
        <mxCell id="G9q0YJzkAukDp6qlGBMy-72" value="managerID" style="shape=partialRectangle;html=1;whiteSpace=wrap;connectable=0;fillColor=none;top=0;left=0;bottom=0;right=0;align=left;spacingLeft=6;overflow=hidden;strokeColor=inherit;fontSize=16;" parent="G9q0YJzkAukDp6qlGBMy-70" vertex="1">
          <mxGeometry x="56" width="194" height="30" as="geometry">
            <mxRectangle width="194" height="30" as="alternateBounds" />
          </mxGeometry>
        </mxCell>
        <mxCell id="G9q0YJzkAukDp6qlGBMy-73" value="" style="shape=tableRow;horizontal=0;startSize=0;swimlaneHead=0;swimlaneBody=0;top=0;left=0;bottom=0;right=0;collapsible=0;dropTarget=0;fillColor=none;points=[[0,0.5],[1,0.5]];portConstraint=eastwest;strokeColor=inherit;fontSize=16;" parent="G9q0YJzkAukDp6qlGBMy-69" vertex="1">
          <mxGeometry y="60" width="250" height="30" as="geometry" />
        </mxCell>
        <mxCell id="G9q0YJzkAukDp6qlGBMy-74" value="" style="shape=partialRectangle;html=1;whiteSpace=wrap;connectable=0;fillColor=none;top=0;left=0;bottom=0;right=0;overflow=hidden;strokeColor=inherit;fontSize=16;" parent="G9q0YJzkAukDp6qlGBMy-73" vertex="1">
          <mxGeometry width="56" height="30" as="geometry">
            <mxRectangle width="56" height="30" as="alternateBounds" />
          </mxGeometry>
        </mxCell>
        <mxCell id="G9q0YJzkAukDp6qlGBMy-75" value="name&amp;nbsp;" style="shape=partialRectangle;html=1;whiteSpace=wrap;connectable=0;fillColor=none;top=0;left=0;bottom=0;right=0;align=left;spacingLeft=6;overflow=hidden;strokeColor=inherit;fontSize=16;" parent="G9q0YJzkAukDp6qlGBMy-73" vertex="1">
          <mxGeometry x="56" width="194" height="30" as="geometry">
            <mxRectangle width="194" height="30" as="alternateBounds" />
          </mxGeometry>
        </mxCell>
        <mxCell id="G9q0YJzkAukDp6qlGBMy-76" value="" style="shape=tableRow;horizontal=0;startSize=0;swimlaneHead=0;swimlaneBody=0;top=0;left=0;bottom=0;right=0;collapsible=0;dropTarget=0;fillColor=none;points=[[0,0.5],[1,0.5]];portConstraint=eastwest;strokeColor=inherit;fontSize=16;" parent="G9q0YJzkAukDp6qlGBMy-69" vertex="1">
          <mxGeometry y="90" width="250" height="30" as="geometry" />
        </mxCell>
        <mxCell id="G9q0YJzkAukDp6qlGBMy-77" value="PK" style="shape=partialRectangle;html=1;whiteSpace=wrap;connectable=0;fillColor=none;top=0;left=0;bottom=0;right=0;overflow=hidden;strokeColor=inherit;fontSize=16;" parent="G9q0YJzkAukDp6qlGBMy-76" vertex="1">
          <mxGeometry width="56" height="30" as="geometry">
            <mxRectangle width="56" height="30" as="alternateBounds" />
          </mxGeometry>
        </mxCell>
        <mxCell id="G9q0YJzkAukDp6qlGBMy-78" value="email" style="shape=partialRectangle;html=1;whiteSpace=wrap;connectable=0;fillColor=none;top=0;left=0;bottom=0;right=0;align=left;spacingLeft=6;overflow=hidden;strokeColor=inherit;fontSize=16;" parent="G9q0YJzkAukDp6qlGBMy-76" vertex="1">
          <mxGeometry x="56" width="194" height="30" as="geometry">
            <mxRectangle width="194" height="30" as="alternateBounds" />
          </mxGeometry>
        </mxCell>
        <mxCell id="G9q0YJzkAukDp6qlGBMy-80" style="shape=tableRow;horizontal=0;startSize=0;swimlaneHead=0;swimlaneBody=0;top=0;left=0;bottom=0;right=0;collapsible=0;dropTarget=0;fillColor=none;points=[[0,0.5],[1,0.5]];portConstraint=eastwest;strokeColor=inherit;fontSize=16;" parent="G9q0YJzkAukDp6qlGBMy-69" vertex="1">
          <mxGeometry y="120" width="250" height="30" as="geometry" />
        </mxCell>
        <mxCell id="G9q0YJzkAukDp6qlGBMy-81" style="shape=partialRectangle;html=1;whiteSpace=wrap;connectable=0;fillColor=none;top=0;left=0;bottom=0;right=0;overflow=hidden;strokeColor=inherit;fontSize=16;" parent="G9q0YJzkAukDp6qlGBMy-80" vertex="1">
          <mxGeometry width="56" height="30" as="geometry">
            <mxRectangle width="56" height="30" as="alternateBounds" />
          </mxGeometry>
        </mxCell>
        <mxCell id="G9q0YJzkAukDp6qlGBMy-82" value="role" style="shape=partialRectangle;html=1;whiteSpace=wrap;connectable=0;fillColor=none;top=0;left=0;bottom=0;right=0;align=left;spacingLeft=6;overflow=hidden;strokeColor=inherit;fontSize=16;" parent="G9q0YJzkAukDp6qlGBMy-80" vertex="1">
          <mxGeometry x="56" width="194" height="30" as="geometry">
            <mxRectangle width="194" height="30" as="alternateBounds" />
          </mxGeometry>
        </mxCell>
        <mxCell id="G9q0YJzkAukDp6qlGBMy-83" style="shape=tableRow;horizontal=0;startSize=0;swimlaneHead=0;swimlaneBody=0;top=0;left=0;bottom=0;right=0;collapsible=0;dropTarget=0;fillColor=none;points=[[0,0.5],[1,0.5]];portConstraint=eastwest;strokeColor=inherit;fontSize=16;" parent="G9q0YJzkAukDp6qlGBMy-69" vertex="1">
          <mxGeometry y="150" width="250" height="30" as="geometry" />
        </mxCell>
        <mxCell id="G9q0YJzkAukDp6qlGBMy-84" style="shape=partialRectangle;html=1;whiteSpace=wrap;connectable=0;fillColor=none;top=0;left=0;bottom=0;right=0;overflow=hidden;strokeColor=inherit;fontSize=16;" parent="G9q0YJzkAukDp6qlGBMy-83" vertex="1">
          <mxGeometry width="56" height="30" as="geometry">
            <mxRectangle width="56" height="30" as="alternateBounds" />
          </mxGeometry>
        </mxCell>
        <mxCell id="G9q0YJzkAukDp6qlGBMy-85" value="ExperienceYears" style="shape=partialRectangle;html=1;whiteSpace=wrap;connectable=0;fillColor=none;top=0;left=0;bottom=0;right=0;align=left;spacingLeft=6;overflow=hidden;strokeColor=inherit;fontSize=16;" parent="G9q0YJzkAukDp6qlGBMy-83" vertex="1">
          <mxGeometry x="56" width="194" height="30" as="geometry">
            <mxRectangle width="194" height="30" as="alternateBounds" />
          </mxGeometry>
        </mxCell>
        <mxCell id="G9q0YJzkAukDp6qlGBMy-86" style="shape=tableRow;horizontal=0;startSize=0;swimlaneHead=0;swimlaneBody=0;top=0;left=0;bottom=0;right=0;collapsible=0;dropTarget=0;fillColor=none;points=[[0,0.5],[1,0.5]];portConstraint=eastwest;strokeColor=inherit;fontSize=16;" parent="G9q0YJzkAukDp6qlGBMy-69" vertex="1">
          <mxGeometry y="180" width="250" height="30" as="geometry" />
        </mxCell>
        <mxCell id="G9q0YJzkAukDp6qlGBMy-87" value="FK" style="shape=partialRectangle;html=1;whiteSpace=wrap;connectable=0;fillColor=none;top=0;left=0;bottom=0;right=0;overflow=hidden;strokeColor=inherit;fontSize=16;" parent="G9q0YJzkAukDp6qlGBMy-86" vertex="1">
          <mxGeometry width="56" height="30" as="geometry">
            <mxRectangle width="56" height="30" as="alternateBounds" />
          </mxGeometry>
        </mxCell>
        <mxCell id="G9q0YJzkAukDp6qlGBMy-88" value="DepartementID" style="shape=partialRectangle;html=1;whiteSpace=wrap;connectable=0;fillColor=none;top=0;left=0;bottom=0;right=0;align=left;spacingLeft=6;overflow=hidden;strokeColor=inherit;fontSize=16;" parent="G9q0YJzkAukDp6qlGBMy-86" vertex="1">
          <mxGeometry x="56" width="194" height="30" as="geometry">
            <mxRectangle width="194" height="30" as="alternateBounds" />
          </mxGeometry>
        </mxCell>
        <mxCell id="G9q0YJzkAukDp6qlGBMy-89" style="shape=tableRow;horizontal=0;startSize=0;swimlaneHead=0;swimlaneBody=0;top=0;left=0;bottom=0;right=0;collapsible=0;dropTarget=0;fillColor=none;points=[[0,0.5],[1,0.5]];portConstraint=eastwest;strokeColor=inherit;fontSize=16;" parent="G9q0YJzkAukDp6qlGBMy-69" vertex="1">
          <mxGeometry y="210" width="250" height="30" as="geometry" />
        </mxCell>
        <mxCell id="G9q0YJzkAukDp6qlGBMy-90" value="FK" style="shape=partialRectangle;html=1;whiteSpace=wrap;connectable=0;fillColor=none;top=0;left=0;bottom=0;right=0;overflow=hidden;strokeColor=inherit;fontSize=16;" parent="G9q0YJzkAukDp6qlGBMy-89" vertex="1">
          <mxGeometry width="56" height="30" as="geometry">
            <mxRectangle width="56" height="30" as="alternateBounds" />
          </mxGeometry>
        </mxCell>
        <mxCell id="G9q0YJzkAukDp6qlGBMy-91" value="Reports_to" style="shape=partialRectangle;html=1;whiteSpace=wrap;connectable=0;fillColor=none;top=0;left=0;bottom=0;right=0;align=left;spacingLeft=6;overflow=hidden;strokeColor=inherit;fontSize=16;" parent="G9q0YJzkAukDp6qlGBMy-89" vertex="1">
          <mxGeometry x="56" width="194" height="30" as="geometry">
            <mxRectangle width="194" height="30" as="alternateBounds" />
          </mxGeometry>
        </mxCell>
        <mxCell id="G9q0YJzkAukDp6qlGBMy-326" style="edgeStyle=orthogonalEdgeStyle;rounded=0;orthogonalLoop=1;jettySize=auto;html=1;exitX=0.409;exitY=-0.094;exitDx=0;exitDy=0;exitPerimeter=0;" parent="1" source="G9q0YJzkAukDp6qlGBMy-329" edge="1">
          <mxGeometry relative="1" as="geometry">
            <mxPoint x="700" y="700" as="targetPoint" />
          </mxGeometry>
        </mxCell>
        <mxCell id="G9q0YJzkAukDp6qlGBMy-373" style="edgeStyle=orthogonalEdgeStyle;rounded=0;orthogonalLoop=1;jettySize=auto;html=1;exitX=0.5;exitY=0;exitDx=0;exitDy=0;entryX=0.367;entryY=1.167;entryDx=0;entryDy=0;entryPerimeter=0;" parent="1" source="G9q0YJzkAukDp6qlGBMy-112" target="G9q0YJzkAukDp6qlGBMy-376" edge="1">
          <mxGeometry relative="1" as="geometry">
            <mxPoint x="1190" y="-260" as="targetPoint" />
          </mxGeometry>
        </mxCell>
        <mxCell id="G9q0YJzkAukDp6qlGBMy-112" value="Employee" style="shape=table;startSize=30;container=1;collapsible=0;childLayout=tableLayout;fixedRows=1;rowLines=0;fontStyle=0;strokeColor=default;fontSize=16;" parent="1" vertex="1">
          <mxGeometry x="1110" y="10" width="180" height="330" as="geometry" />
        </mxCell>
        <mxCell id="G9q0YJzkAukDp6qlGBMy-116" value="" style="shape=tableRow;horizontal=0;startSize=0;swimlaneHead=0;swimlaneBody=0;top=0;left=0;bottom=0;right=0;collapsible=0;dropTarget=0;fillColor=none;points=[[0,0.5],[1,0.5]];portConstraint=eastwest;strokeColor=inherit;fontSize=16;" parent="G9q0YJzkAukDp6qlGBMy-112" vertex="1">
          <mxGeometry y="30" width="180" height="30" as="geometry" />
        </mxCell>
        <mxCell id="G9q0YJzkAukDp6qlGBMy-117" value="PK" style="shape=partialRectangle;html=1;whiteSpace=wrap;connectable=0;fillColor=none;top=0;left=0;bottom=0;right=0;overflow=hidden;strokeColor=inherit;fontSize=16;" parent="G9q0YJzkAukDp6qlGBMy-116" vertex="1">
          <mxGeometry width="40" height="30" as="geometry">
            <mxRectangle width="40" height="30" as="alternateBounds" />
          </mxGeometry>
        </mxCell>
        <mxCell id="G9q0YJzkAukDp6qlGBMy-118" value="EmployeeID" style="shape=partialRectangle;html=1;whiteSpace=wrap;connectable=0;fillColor=none;top=0;left=0;bottom=0;right=0;align=left;spacingLeft=6;overflow=hidden;strokeColor=inherit;fontSize=16;" parent="G9q0YJzkAukDp6qlGBMy-116" vertex="1">
          <mxGeometry x="40" width="140" height="30" as="geometry">
            <mxRectangle width="140" height="30" as="alternateBounds" />
          </mxGeometry>
        </mxCell>
        <mxCell id="G9q0YJzkAukDp6qlGBMy-119" value="" style="shape=tableRow;horizontal=0;startSize=0;swimlaneHead=0;swimlaneBody=0;top=0;left=0;bottom=0;right=0;collapsible=0;dropTarget=0;fillColor=none;points=[[0,0.5],[1,0.5]];portConstraint=eastwest;strokeColor=inherit;fontSize=16;" parent="G9q0YJzkAukDp6qlGBMy-112" vertex="1">
          <mxGeometry y="60" width="180" height="30" as="geometry" />
        </mxCell>
        <mxCell id="G9q0YJzkAukDp6qlGBMy-120" value="" style="shape=partialRectangle;html=1;whiteSpace=wrap;connectable=0;fillColor=none;top=0;left=0;bottom=0;right=0;overflow=hidden;strokeColor=inherit;fontSize=16;" parent="G9q0YJzkAukDp6qlGBMy-119" vertex="1">
          <mxGeometry width="40" height="30" as="geometry">
            <mxRectangle width="40" height="30" as="alternateBounds" />
          </mxGeometry>
        </mxCell>
        <mxCell id="G9q0YJzkAukDp6qlGBMy-121" value="name" style="shape=partialRectangle;html=1;whiteSpace=wrap;connectable=0;fillColor=none;top=0;left=0;bottom=0;right=0;align=left;spacingLeft=6;overflow=hidden;strokeColor=inherit;fontSize=16;" parent="G9q0YJzkAukDp6qlGBMy-119" vertex="1">
          <mxGeometry x="40" width="140" height="30" as="geometry">
            <mxRectangle width="140" height="30" as="alternateBounds" />
          </mxGeometry>
        </mxCell>
        <mxCell id="G9q0YJzkAukDp6qlGBMy-122" style="shape=tableRow;horizontal=0;startSize=0;swimlaneHead=0;swimlaneBody=0;top=0;left=0;bottom=0;right=0;collapsible=0;dropTarget=0;fillColor=none;points=[[0,0.5],[1,0.5]];portConstraint=eastwest;strokeColor=inherit;fontSize=16;" parent="G9q0YJzkAukDp6qlGBMy-112" vertex="1">
          <mxGeometry y="90" width="180" height="30" as="geometry" />
        </mxCell>
        <mxCell id="G9q0YJzkAukDp6qlGBMy-123" style="shape=partialRectangle;html=1;whiteSpace=wrap;connectable=0;fillColor=none;top=0;left=0;bottom=0;right=0;overflow=hidden;strokeColor=inherit;fontSize=16;" parent="G9q0YJzkAukDp6qlGBMy-122" vertex="1">
          <mxGeometry width="40" height="30" as="geometry">
            <mxRectangle width="40" height="30" as="alternateBounds" />
          </mxGeometry>
        </mxCell>
        <mxCell id="G9q0YJzkAukDp6qlGBMy-124" value="role" style="shape=partialRectangle;html=1;whiteSpace=wrap;connectable=0;fillColor=none;top=0;left=0;bottom=0;right=0;align=left;spacingLeft=6;overflow=hidden;strokeColor=inherit;fontSize=16;" parent="G9q0YJzkAukDp6qlGBMy-122" vertex="1">
          <mxGeometry x="40" width="140" height="30" as="geometry">
            <mxRectangle width="140" height="30" as="alternateBounds" />
          </mxGeometry>
        </mxCell>
        <mxCell id="G9q0YJzkAukDp6qlGBMy-125" style="shape=tableRow;horizontal=0;startSize=0;swimlaneHead=0;swimlaneBody=0;top=0;left=0;bottom=0;right=0;collapsible=0;dropTarget=0;fillColor=none;points=[[0,0.5],[1,0.5]];portConstraint=eastwest;strokeColor=inherit;fontSize=16;" parent="G9q0YJzkAukDp6qlGBMy-112" vertex="1">
          <mxGeometry y="120" width="180" height="30" as="geometry" />
        </mxCell>
        <mxCell id="G9q0YJzkAukDp6qlGBMy-126" style="shape=partialRectangle;html=1;whiteSpace=wrap;connectable=0;fillColor=none;top=0;left=0;bottom=0;right=0;overflow=hidden;strokeColor=inherit;fontSize=16;" parent="G9q0YJzkAukDp6qlGBMy-125" vertex="1">
          <mxGeometry width="40" height="30" as="geometry">
            <mxRectangle width="40" height="30" as="alternateBounds" />
          </mxGeometry>
        </mxCell>
        <mxCell id="G9q0YJzkAukDp6qlGBMy-127" value="skills" style="shape=partialRectangle;html=1;whiteSpace=wrap;connectable=0;fillColor=none;top=0;left=0;bottom=0;right=0;align=left;spacingLeft=6;overflow=hidden;strokeColor=inherit;fontSize=16;" parent="G9q0YJzkAukDp6qlGBMy-125" vertex="1">
          <mxGeometry x="40" width="140" height="30" as="geometry">
            <mxRectangle width="140" height="30" as="alternateBounds" />
          </mxGeometry>
        </mxCell>
        <mxCell id="G9q0YJzkAukDp6qlGBMy-128" style="shape=tableRow;horizontal=0;startSize=0;swimlaneHead=0;swimlaneBody=0;top=0;left=0;bottom=0;right=0;collapsible=0;dropTarget=0;fillColor=none;points=[[0,0.5],[1,0.5]];portConstraint=eastwest;strokeColor=inherit;fontSize=16;" parent="G9q0YJzkAukDp6qlGBMy-112" vertex="1">
          <mxGeometry y="150" width="180" height="30" as="geometry" />
        </mxCell>
        <mxCell id="G9q0YJzkAukDp6qlGBMy-129" style="shape=partialRectangle;html=1;whiteSpace=wrap;connectable=0;fillColor=none;top=0;left=0;bottom=0;right=0;overflow=hidden;strokeColor=inherit;fontSize=16;" parent="G9q0YJzkAukDp6qlGBMy-128" vertex="1">
          <mxGeometry width="40" height="30" as="geometry">
            <mxRectangle width="40" height="30" as="alternateBounds" />
          </mxGeometry>
        </mxCell>
        <mxCell id="G9q0YJzkAukDp6qlGBMy-130" value="HireDate" style="shape=partialRectangle;html=1;whiteSpace=wrap;connectable=0;fillColor=none;top=0;left=0;bottom=0;right=0;align=left;spacingLeft=6;overflow=hidden;strokeColor=inherit;fontSize=16;" parent="G9q0YJzkAukDp6qlGBMy-128" vertex="1">
          <mxGeometry x="40" width="140" height="30" as="geometry">
            <mxRectangle width="140" height="30" as="alternateBounds" />
          </mxGeometry>
        </mxCell>
        <mxCell id="G9q0YJzkAukDp6qlGBMy-131" style="shape=tableRow;horizontal=0;startSize=0;swimlaneHead=0;swimlaneBody=0;top=0;left=0;bottom=0;right=0;collapsible=0;dropTarget=0;fillColor=none;points=[[0,0.5],[1,0.5]];portConstraint=eastwest;strokeColor=inherit;fontSize=16;" parent="G9q0YJzkAukDp6qlGBMy-112" vertex="1">
          <mxGeometry y="180" width="180" height="30" as="geometry" />
        </mxCell>
        <mxCell id="G9q0YJzkAukDp6qlGBMy-132" style="shape=partialRectangle;html=1;whiteSpace=wrap;connectable=0;fillColor=none;top=0;left=0;bottom=0;right=0;overflow=hidden;strokeColor=inherit;fontSize=16;" parent="G9q0YJzkAukDp6qlGBMy-131" vertex="1">
          <mxGeometry width="40" height="30" as="geometry">
            <mxRectangle width="40" height="30" as="alternateBounds" />
          </mxGeometry>
        </mxCell>
        <mxCell id="G9q0YJzkAukDp6qlGBMy-133" value="Salary" style="shape=partialRectangle;html=1;whiteSpace=wrap;connectable=0;fillColor=none;top=0;left=0;bottom=0;right=0;align=left;spacingLeft=6;overflow=hidden;strokeColor=inherit;fontSize=16;" parent="G9q0YJzkAukDp6qlGBMy-131" vertex="1">
          <mxGeometry x="40" width="140" height="30" as="geometry">
            <mxRectangle width="140" height="30" as="alternateBounds" />
          </mxGeometry>
        </mxCell>
        <mxCell id="G9q0YJzkAukDp6qlGBMy-134" style="shape=tableRow;horizontal=0;startSize=0;swimlaneHead=0;swimlaneBody=0;top=0;left=0;bottom=0;right=0;collapsible=0;dropTarget=0;fillColor=none;points=[[0,0.5],[1,0.5]];portConstraint=eastwest;strokeColor=inherit;fontSize=16;" parent="G9q0YJzkAukDp6qlGBMy-112" vertex="1">
          <mxGeometry y="210" width="180" height="30" as="geometry" />
        </mxCell>
        <mxCell id="G9q0YJzkAukDp6qlGBMy-135" style="shape=partialRectangle;html=1;whiteSpace=wrap;connectable=0;fillColor=none;top=0;left=0;bottom=0;right=0;overflow=hidden;strokeColor=inherit;fontSize=16;" parent="G9q0YJzkAukDp6qlGBMy-134" vertex="1">
          <mxGeometry width="40" height="30" as="geometry">
            <mxRectangle width="40" height="30" as="alternateBounds" />
          </mxGeometry>
        </mxCell>
        <mxCell id="G9q0YJzkAukDp6qlGBMy-136" value="Status" style="shape=partialRectangle;html=1;whiteSpace=wrap;connectable=0;fillColor=none;top=0;left=0;bottom=0;right=0;align=left;spacingLeft=6;overflow=hidden;strokeColor=inherit;fontSize=16;" parent="G9q0YJzkAukDp6qlGBMy-134" vertex="1">
          <mxGeometry x="40" width="140" height="30" as="geometry">
            <mxRectangle width="140" height="30" as="alternateBounds" />
          </mxGeometry>
        </mxCell>
        <mxCell id="G9q0YJzkAukDp6qlGBMy-137" style="shape=tableRow;horizontal=0;startSize=0;swimlaneHead=0;swimlaneBody=0;top=0;left=0;bottom=0;right=0;collapsible=0;dropTarget=0;fillColor=none;points=[[0,0.5],[1,0.5]];portConstraint=eastwest;strokeColor=inherit;fontSize=16;" parent="G9q0YJzkAukDp6qlGBMy-112" vertex="1">
          <mxGeometry y="240" width="180" height="30" as="geometry" />
        </mxCell>
        <mxCell id="G9q0YJzkAukDp6qlGBMy-138" value="FK" style="shape=partialRectangle;html=1;whiteSpace=wrap;connectable=0;fillColor=none;top=0;left=0;bottom=0;right=0;overflow=hidden;strokeColor=inherit;fontSize=16;" parent="G9q0YJzkAukDp6qlGBMy-137" vertex="1">
          <mxGeometry width="40" height="30" as="geometry">
            <mxRectangle width="40" height="30" as="alternateBounds" />
          </mxGeometry>
        </mxCell>
        <mxCell id="G9q0YJzkAukDp6qlGBMy-139" value="ManagerID" style="shape=partialRectangle;html=1;whiteSpace=wrap;connectable=0;fillColor=none;top=0;left=0;bottom=0;right=0;align=left;spacingLeft=6;overflow=hidden;strokeColor=inherit;fontSize=16;" parent="G9q0YJzkAukDp6qlGBMy-137" vertex="1">
          <mxGeometry x="40" width="140" height="30" as="geometry">
            <mxRectangle width="140" height="30" as="alternateBounds" />
          </mxGeometry>
        </mxCell>
        <mxCell id="G9q0YJzkAukDp6qlGBMy-140" style="shape=tableRow;horizontal=0;startSize=0;swimlaneHead=0;swimlaneBody=0;top=0;left=0;bottom=0;right=0;collapsible=0;dropTarget=0;fillColor=none;points=[[0,0.5],[1,0.5]];portConstraint=eastwest;strokeColor=inherit;fontSize=16;" parent="G9q0YJzkAukDp6qlGBMy-112" vertex="1">
          <mxGeometry y="270" width="180" height="30" as="geometry" />
        </mxCell>
        <mxCell id="G9q0YJzkAukDp6qlGBMy-141" value="FK" style="shape=partialRectangle;html=1;whiteSpace=wrap;connectable=0;fillColor=none;top=0;left=0;bottom=0;right=0;overflow=hidden;strokeColor=inherit;fontSize=16;" parent="G9q0YJzkAukDp6qlGBMy-140" vertex="1">
          <mxGeometry width="40" height="30" as="geometry">
            <mxRectangle width="40" height="30" as="alternateBounds" />
          </mxGeometry>
        </mxCell>
        <mxCell id="G9q0YJzkAukDp6qlGBMy-142" value="DepartmentID" style="shape=partialRectangle;html=1;whiteSpace=wrap;connectable=0;fillColor=none;top=0;left=0;bottom=0;right=0;align=left;spacingLeft=6;overflow=hidden;strokeColor=inherit;fontSize=16;" parent="G9q0YJzkAukDp6qlGBMy-140" vertex="1">
          <mxGeometry x="40" width="140" height="30" as="geometry">
            <mxRectangle width="140" height="30" as="alternateBounds" />
          </mxGeometry>
        </mxCell>
        <mxCell id="G9q0YJzkAukDp6qlGBMy-143" style="shape=tableRow;horizontal=0;startSize=0;swimlaneHead=0;swimlaneBody=0;top=0;left=0;bottom=0;right=0;collapsible=0;dropTarget=0;fillColor=none;points=[[0,0.5],[1,0.5]];portConstraint=eastwest;strokeColor=inherit;fontSize=16;" parent="G9q0YJzkAukDp6qlGBMy-112" vertex="1">
          <mxGeometry y="300" width="180" height="30" as="geometry" />
        </mxCell>
        <mxCell id="G9q0YJzkAukDp6qlGBMy-144" value="FK" style="shape=partialRectangle;html=1;whiteSpace=wrap;connectable=0;fillColor=none;top=0;left=0;bottom=0;right=0;overflow=hidden;strokeColor=inherit;fontSize=16;" parent="G9q0YJzkAukDp6qlGBMy-143" vertex="1">
          <mxGeometry width="40" height="30" as="geometry">
            <mxRectangle width="40" height="30" as="alternateBounds" />
          </mxGeometry>
        </mxCell>
        <mxCell id="G9q0YJzkAukDp6qlGBMy-145" value="CurrentProjectID" style="shape=partialRectangle;html=1;whiteSpace=wrap;connectable=0;fillColor=none;top=0;left=0;bottom=0;right=0;align=left;spacingLeft=6;overflow=hidden;strokeColor=inherit;fontSize=16;" parent="G9q0YJzkAukDp6qlGBMy-143" vertex="1">
          <mxGeometry x="40" width="140" height="30" as="geometry">
            <mxRectangle width="140" height="30" as="alternateBounds" />
          </mxGeometry>
        </mxCell>
        <mxCell id="G9q0YJzkAukDp6qlGBMy-380" style="edgeStyle=orthogonalEdgeStyle;rounded=0;orthogonalLoop=1;jettySize=auto;html=1;exitX=0.5;exitY=0;exitDx=0;exitDy=0;entryX=0.75;entryY=1.333;entryDx=0;entryDy=0;entryPerimeter=0;" parent="1" source="G9q0YJzkAukDp6qlGBMy-160" target="G9q0YJzkAukDp6qlGBMy-385" edge="1">
          <mxGeometry relative="1" as="geometry">
            <mxPoint x="1110" y="-910" as="targetPoint" />
          </mxGeometry>
        </mxCell>
        <mxCell id="G9q0YJzkAukDp6qlGBMy-391" style="edgeStyle=orthogonalEdgeStyle;rounded=0;orthogonalLoop=1;jettySize=auto;html=1;exitX=0;exitY=0;exitDx=0;exitDy=0;" parent="1" source="G9q0YJzkAukDp6qlGBMy-160" edge="1">
          <mxGeometry relative="1" as="geometry">
            <mxPoint x="500" y="-820" as="targetPoint" />
          </mxGeometry>
        </mxCell>
        <mxCell id="G9q0YJzkAukDp6qlGBMy-160" value="Projects" style="shape=table;startSize=30;container=1;collapsible=0;childLayout=tableLayout;fixedRows=1;rowLines=0;fontStyle=0;strokeColor=default;fontSize=16;" parent="1" vertex="1">
          <mxGeometry x="1010" y="-880" width="180" height="300" as="geometry" />
        </mxCell>
        <mxCell id="G9q0YJzkAukDp6qlGBMy-164" value="" style="shape=tableRow;horizontal=0;startSize=0;swimlaneHead=0;swimlaneBody=0;top=0;left=0;bottom=0;right=0;collapsible=0;dropTarget=0;fillColor=none;points=[[0,0.5],[1,0.5]];portConstraint=eastwest;strokeColor=inherit;fontSize=16;" parent="G9q0YJzkAukDp6qlGBMy-160" vertex="1">
          <mxGeometry y="30" width="180" height="30" as="geometry" />
        </mxCell>
        <mxCell id="G9q0YJzkAukDp6qlGBMy-165" value="PK" style="shape=partialRectangle;html=1;whiteSpace=wrap;connectable=0;fillColor=none;top=0;left=0;bottom=0;right=0;overflow=hidden;strokeColor=inherit;fontSize=16;" parent="G9q0YJzkAukDp6qlGBMy-164" vertex="1">
          <mxGeometry width="40" height="30" as="geometry">
            <mxRectangle width="40" height="30" as="alternateBounds" />
          </mxGeometry>
        </mxCell>
        <mxCell id="G9q0YJzkAukDp6qlGBMy-166" value="ProjectID" style="shape=partialRectangle;html=1;whiteSpace=wrap;connectable=0;fillColor=none;top=0;left=0;bottom=0;right=0;align=left;spacingLeft=6;overflow=hidden;strokeColor=inherit;fontSize=16;" parent="G9q0YJzkAukDp6qlGBMy-164" vertex="1">
          <mxGeometry x="40" width="140" height="30" as="geometry">
            <mxRectangle width="140" height="30" as="alternateBounds" />
          </mxGeometry>
        </mxCell>
        <mxCell id="G9q0YJzkAukDp6qlGBMy-167" value="" style="shape=tableRow;horizontal=0;startSize=0;swimlaneHead=0;swimlaneBody=0;top=0;left=0;bottom=0;right=0;collapsible=0;dropTarget=0;fillColor=none;points=[[0,0.5],[1,0.5]];portConstraint=eastwest;strokeColor=inherit;fontSize=16;" parent="G9q0YJzkAukDp6qlGBMy-160" vertex="1">
          <mxGeometry y="60" width="180" height="30" as="geometry" />
        </mxCell>
        <mxCell id="G9q0YJzkAukDp6qlGBMy-168" value="" style="shape=partialRectangle;html=1;whiteSpace=wrap;connectable=0;fillColor=none;top=0;left=0;bottom=0;right=0;overflow=hidden;strokeColor=inherit;fontSize=16;" parent="G9q0YJzkAukDp6qlGBMy-167" vertex="1">
          <mxGeometry width="40" height="30" as="geometry">
            <mxRectangle width="40" height="30" as="alternateBounds" />
          </mxGeometry>
        </mxCell>
        <mxCell id="G9q0YJzkAukDp6qlGBMy-169" value="name" style="shape=partialRectangle;html=1;whiteSpace=wrap;connectable=0;fillColor=none;top=0;left=0;bottom=0;right=0;align=left;spacingLeft=6;overflow=hidden;strokeColor=inherit;fontSize=16;" parent="G9q0YJzkAukDp6qlGBMy-167" vertex="1">
          <mxGeometry x="40" width="140" height="30" as="geometry">
            <mxRectangle width="140" height="30" as="alternateBounds" />
          </mxGeometry>
        </mxCell>
        <mxCell id="G9q0YJzkAukDp6qlGBMy-170" style="shape=tableRow;horizontal=0;startSize=0;swimlaneHead=0;swimlaneBody=0;top=0;left=0;bottom=0;right=0;collapsible=0;dropTarget=0;fillColor=none;points=[[0,0.5],[1,0.5]];portConstraint=eastwest;strokeColor=inherit;fontSize=16;" parent="G9q0YJzkAukDp6qlGBMy-160" vertex="1">
          <mxGeometry y="90" width="180" height="30" as="geometry" />
        </mxCell>
        <mxCell id="G9q0YJzkAukDp6qlGBMy-171" style="shape=partialRectangle;html=1;whiteSpace=wrap;connectable=0;fillColor=none;top=0;left=0;bottom=0;right=0;overflow=hidden;strokeColor=inherit;fontSize=16;" parent="G9q0YJzkAukDp6qlGBMy-170" vertex="1">
          <mxGeometry width="40" height="30" as="geometry">
            <mxRectangle width="40" height="30" as="alternateBounds" />
          </mxGeometry>
        </mxCell>
        <mxCell id="G9q0YJzkAukDp6qlGBMy-172" value="description" style="shape=partialRectangle;html=1;whiteSpace=wrap;connectable=0;fillColor=none;top=0;left=0;bottom=0;right=0;align=left;spacingLeft=6;overflow=hidden;strokeColor=inherit;fontSize=16;" parent="G9q0YJzkAukDp6qlGBMy-170" vertex="1">
          <mxGeometry x="40" width="140" height="30" as="geometry">
            <mxRectangle width="140" height="30" as="alternateBounds" />
          </mxGeometry>
        </mxCell>
        <mxCell id="G9q0YJzkAukDp6qlGBMy-173" style="shape=tableRow;horizontal=0;startSize=0;swimlaneHead=0;swimlaneBody=0;top=0;left=0;bottom=0;right=0;collapsible=0;dropTarget=0;fillColor=none;points=[[0,0.5],[1,0.5]];portConstraint=eastwest;strokeColor=inherit;fontSize=16;" parent="G9q0YJzkAukDp6qlGBMy-160" vertex="1">
          <mxGeometry y="120" width="180" height="30" as="geometry" />
        </mxCell>
        <mxCell id="G9q0YJzkAukDp6qlGBMy-174" style="shape=partialRectangle;html=1;whiteSpace=wrap;connectable=0;fillColor=none;top=0;left=0;bottom=0;right=0;overflow=hidden;strokeColor=inherit;fontSize=16;" parent="G9q0YJzkAukDp6qlGBMy-173" vertex="1">
          <mxGeometry width="40" height="30" as="geometry">
            <mxRectangle width="40" height="30" as="alternateBounds" />
          </mxGeometry>
        </mxCell>
        <mxCell id="G9q0YJzkAukDp6qlGBMy-175" value="type" style="shape=partialRectangle;html=1;whiteSpace=wrap;connectable=0;fillColor=none;top=0;left=0;bottom=0;right=0;align=left;spacingLeft=6;overflow=hidden;strokeColor=inherit;fontSize=16;" parent="G9q0YJzkAukDp6qlGBMy-173" vertex="1">
          <mxGeometry x="40" width="140" height="30" as="geometry">
            <mxRectangle width="140" height="30" as="alternateBounds" />
          </mxGeometry>
        </mxCell>
        <mxCell id="G9q0YJzkAukDp6qlGBMy-176" style="shape=tableRow;horizontal=0;startSize=0;swimlaneHead=0;swimlaneBody=0;top=0;left=0;bottom=0;right=0;collapsible=0;dropTarget=0;fillColor=none;points=[[0,0.5],[1,0.5]];portConstraint=eastwest;strokeColor=inherit;fontSize=16;" parent="G9q0YJzkAukDp6qlGBMy-160" vertex="1">
          <mxGeometry y="150" width="180" height="30" as="geometry" />
        </mxCell>
        <mxCell id="G9q0YJzkAukDp6qlGBMy-177" style="shape=partialRectangle;html=1;whiteSpace=wrap;connectable=0;fillColor=none;top=0;left=0;bottom=0;right=0;overflow=hidden;strokeColor=inherit;fontSize=16;" parent="G9q0YJzkAukDp6qlGBMy-176" vertex="1">
          <mxGeometry width="40" height="30" as="geometry">
            <mxRectangle width="40" height="30" as="alternateBounds" />
          </mxGeometry>
        </mxCell>
        <mxCell id="G9q0YJzkAukDp6qlGBMy-178" value="status&amp;nbsp;" style="shape=partialRectangle;html=1;whiteSpace=wrap;connectable=0;fillColor=none;top=0;left=0;bottom=0;right=0;align=left;spacingLeft=6;overflow=hidden;strokeColor=inherit;fontSize=16;" parent="G9q0YJzkAukDp6qlGBMy-176" vertex="1">
          <mxGeometry x="40" width="140" height="30" as="geometry">
            <mxRectangle width="140" height="30" as="alternateBounds" />
          </mxGeometry>
        </mxCell>
        <mxCell id="G9q0YJzkAukDp6qlGBMy-179" style="shape=tableRow;horizontal=0;startSize=0;swimlaneHead=0;swimlaneBody=0;top=0;left=0;bottom=0;right=0;collapsible=0;dropTarget=0;fillColor=none;points=[[0,0.5],[1,0.5]];portConstraint=eastwest;strokeColor=inherit;fontSize=16;" parent="G9q0YJzkAukDp6qlGBMy-160" vertex="1">
          <mxGeometry y="180" width="180" height="30" as="geometry" />
        </mxCell>
        <mxCell id="G9q0YJzkAukDp6qlGBMy-180" style="shape=partialRectangle;html=1;whiteSpace=wrap;connectable=0;fillColor=none;top=0;left=0;bottom=0;right=0;overflow=hidden;strokeColor=inherit;fontSize=16;" parent="G9q0YJzkAukDp6qlGBMy-179" vertex="1">
          <mxGeometry width="40" height="30" as="geometry">
            <mxRectangle width="40" height="30" as="alternateBounds" />
          </mxGeometry>
        </mxCell>
        <mxCell id="G9q0YJzkAukDp6qlGBMy-181" value="StartDate&amp;nbsp;" style="shape=partialRectangle;html=1;whiteSpace=wrap;connectable=0;fillColor=none;top=0;left=0;bottom=0;right=0;align=left;spacingLeft=6;overflow=hidden;strokeColor=inherit;fontSize=16;" parent="G9q0YJzkAukDp6qlGBMy-179" vertex="1">
          <mxGeometry x="40" width="140" height="30" as="geometry">
            <mxRectangle width="140" height="30" as="alternateBounds" />
          </mxGeometry>
        </mxCell>
        <mxCell id="G9q0YJzkAukDp6qlGBMy-182" style="shape=tableRow;horizontal=0;startSize=0;swimlaneHead=0;swimlaneBody=0;top=0;left=0;bottom=0;right=0;collapsible=0;dropTarget=0;fillColor=none;points=[[0,0.5],[1,0.5]];portConstraint=eastwest;strokeColor=inherit;fontSize=16;" parent="G9q0YJzkAukDp6qlGBMy-160" vertex="1">
          <mxGeometry y="210" width="180" height="30" as="geometry" />
        </mxCell>
        <mxCell id="G9q0YJzkAukDp6qlGBMy-183" style="shape=partialRectangle;html=1;whiteSpace=wrap;connectable=0;fillColor=none;top=0;left=0;bottom=0;right=0;overflow=hidden;strokeColor=inherit;fontSize=16;" parent="G9q0YJzkAukDp6qlGBMy-182" vertex="1">
          <mxGeometry width="40" height="30" as="geometry">
            <mxRectangle width="40" height="30" as="alternateBounds" />
          </mxGeometry>
        </mxCell>
        <mxCell id="G9q0YJzkAukDp6qlGBMy-184" value="EndDate" style="shape=partialRectangle;html=1;whiteSpace=wrap;connectable=0;fillColor=none;top=0;left=0;bottom=0;right=0;align=left;spacingLeft=6;overflow=hidden;strokeColor=inherit;fontSize=16;" parent="G9q0YJzkAukDp6qlGBMy-182" vertex="1">
          <mxGeometry x="40" width="140" height="30" as="geometry">
            <mxRectangle width="140" height="30" as="alternateBounds" />
          </mxGeometry>
        </mxCell>
        <mxCell id="G9q0YJzkAukDp6qlGBMy-185" style="shape=tableRow;horizontal=0;startSize=0;swimlaneHead=0;swimlaneBody=0;top=0;left=0;bottom=0;right=0;collapsible=0;dropTarget=0;fillColor=none;points=[[0,0.5],[1,0.5]];portConstraint=eastwest;strokeColor=inherit;fontSize=16;" parent="G9q0YJzkAukDp6qlGBMy-160" vertex="1">
          <mxGeometry y="240" width="180" height="30" as="geometry" />
        </mxCell>
        <mxCell id="G9q0YJzkAukDp6qlGBMy-186" value="FK" style="shape=partialRectangle;html=1;whiteSpace=wrap;connectable=0;fillColor=none;top=0;left=0;bottom=0;right=0;overflow=hidden;strokeColor=inherit;fontSize=16;" parent="G9q0YJzkAukDp6qlGBMy-185" vertex="1">
          <mxGeometry width="40" height="30" as="geometry">
            <mxRectangle width="40" height="30" as="alternateBounds" />
          </mxGeometry>
        </mxCell>
        <mxCell id="G9q0YJzkAukDp6qlGBMy-187" value="ManagerID" style="shape=partialRectangle;html=1;whiteSpace=wrap;connectable=0;fillColor=none;top=0;left=0;bottom=0;right=0;align=left;spacingLeft=6;overflow=hidden;strokeColor=inherit;fontSize=16;" parent="G9q0YJzkAukDp6qlGBMy-185" vertex="1">
          <mxGeometry x="40" width="140" height="30" as="geometry">
            <mxRectangle width="140" height="30" as="alternateBounds" />
          </mxGeometry>
        </mxCell>
        <mxCell id="G9q0YJzkAukDp6qlGBMy-188" style="shape=tableRow;horizontal=0;startSize=0;swimlaneHead=0;swimlaneBody=0;top=0;left=0;bottom=0;right=0;collapsible=0;dropTarget=0;fillColor=none;points=[[0,0.5],[1,0.5]];portConstraint=eastwest;strokeColor=inherit;fontSize=16;" parent="G9q0YJzkAukDp6qlGBMy-160" vertex="1">
          <mxGeometry y="270" width="180" height="30" as="geometry" />
        </mxCell>
        <mxCell id="G9q0YJzkAukDp6qlGBMy-189" value="FK" style="shape=partialRectangle;html=1;whiteSpace=wrap;connectable=0;fillColor=none;top=0;left=0;bottom=0;right=0;overflow=hidden;strokeColor=inherit;fontSize=16;" parent="G9q0YJzkAukDp6qlGBMy-188" vertex="1">
          <mxGeometry width="40" height="30" as="geometry">
            <mxRectangle width="40" height="30" as="alternateBounds" />
          </mxGeometry>
        </mxCell>
        <mxCell id="G9q0YJzkAukDp6qlGBMy-190" value="DepartementID" style="shape=partialRectangle;html=1;whiteSpace=wrap;connectable=0;fillColor=none;top=0;left=0;bottom=0;right=0;align=left;spacingLeft=6;overflow=hidden;strokeColor=inherit;fontSize=16;" parent="G9q0YJzkAukDp6qlGBMy-188" vertex="1">
          <mxGeometry x="40" width="140" height="30" as="geometry">
            <mxRectangle width="140" height="30" as="alternateBounds" />
          </mxGeometry>
        </mxCell>
        <mxCell id="G9q0YJzkAukDp6qlGBMy-400" style="edgeStyle=orthogonalEdgeStyle;rounded=0;orthogonalLoop=1;jettySize=auto;html=1;exitX=0.75;exitY=0;exitDx=0;exitDy=0;" parent="1" source="G9q0YJzkAukDp6qlGBMy-191" target="G9q0YJzkAukDp6qlGBMy-401" edge="1">
          <mxGeometry relative="1" as="geometry">
            <mxPoint x="590" y="1180" as="targetPoint" />
          </mxGeometry>
        </mxCell>
        <mxCell id="G9q0YJzkAukDp6qlGBMy-403" style="edgeStyle=orthogonalEdgeStyle;rounded=0;orthogonalLoop=1;jettySize=auto;html=1;exitX=0.5;exitY=0;exitDx=0;exitDy=0;" parent="1" source="G9q0YJzkAukDp6qlGBMy-191" edge="1">
          <mxGeometry relative="1" as="geometry">
            <mxPoint x="190" y="830" as="targetPoint" />
          </mxGeometry>
        </mxCell>
        <mxCell id="G9q0YJzkAukDp6qlGBMy-191" value="Future_Projects" style="shape=table;startSize=30;container=1;collapsible=0;childLayout=tableLayout;fixedRows=1;rowLines=0;fontStyle=0;strokeColor=default;fontSize=16;" parent="1" vertex="1">
          <mxGeometry x="20" y="1010" width="250" height="260" as="geometry" />
        </mxCell>
        <mxCell id="G9q0YJzkAukDp6qlGBMy-192" value="" style="shape=tableRow;horizontal=0;startSize=0;swimlaneHead=0;swimlaneBody=0;top=0;left=0;bottom=0;right=0;collapsible=0;dropTarget=0;fillColor=none;points=[[0,0.5],[1,0.5]];portConstraint=eastwest;strokeColor=inherit;fontSize=16;" parent="G9q0YJzkAukDp6qlGBMy-191" vertex="1">
          <mxGeometry y="30" width="250" height="30" as="geometry" />
        </mxCell>
        <mxCell id="G9q0YJzkAukDp6qlGBMy-193" value="PK" style="shape=partialRectangle;html=1;whiteSpace=wrap;connectable=0;fillColor=none;top=0;left=0;bottom=0;right=0;overflow=hidden;pointerEvents=1;strokeColor=inherit;fontSize=16;" parent="G9q0YJzkAukDp6qlGBMy-192" vertex="1">
          <mxGeometry width="40" height="30" as="geometry">
            <mxRectangle width="40" height="30" as="alternateBounds" />
          </mxGeometry>
        </mxCell>
        <mxCell id="G9q0YJzkAukDp6qlGBMy-194" value="FutureProjectID" style="shape=partialRectangle;html=1;whiteSpace=wrap;connectable=0;fillColor=none;top=0;left=0;bottom=0;right=0;align=left;spacingLeft=6;overflow=hidden;strokeColor=inherit;fontSize=16;" parent="G9q0YJzkAukDp6qlGBMy-192" vertex="1">
          <mxGeometry x="40" width="210" height="30" as="geometry">
            <mxRectangle width="210" height="30" as="alternateBounds" />
          </mxGeometry>
        </mxCell>
        <mxCell id="G9q0YJzkAukDp6qlGBMy-195" value="" style="shape=tableRow;horizontal=0;startSize=0;swimlaneHead=0;swimlaneBody=0;top=0;left=0;bottom=0;right=0;collapsible=0;dropTarget=0;fillColor=none;points=[[0,0.5],[1,0.5]];portConstraint=eastwest;strokeColor=inherit;fontSize=16;" parent="G9q0YJzkAukDp6qlGBMy-191" vertex="1">
          <mxGeometry y="60" width="250" height="30" as="geometry" />
        </mxCell>
        <mxCell id="G9q0YJzkAukDp6qlGBMy-196" value="2" style="shape=partialRectangle;html=1;whiteSpace=wrap;connectable=0;fillColor=none;top=0;left=0;bottom=0;right=0;overflow=hidden;strokeColor=inherit;fontSize=16;" parent="G9q0YJzkAukDp6qlGBMy-195" vertex="1">
          <mxGeometry width="40" height="30" as="geometry">
            <mxRectangle width="40" height="30" as="alternateBounds" />
          </mxGeometry>
        </mxCell>
        <mxCell id="G9q0YJzkAukDp6qlGBMy-197" value="name" style="shape=partialRectangle;html=1;whiteSpace=wrap;connectable=0;fillColor=none;top=0;left=0;bottom=0;right=0;align=left;spacingLeft=6;overflow=hidden;strokeColor=inherit;fontSize=16;" parent="G9q0YJzkAukDp6qlGBMy-195" vertex="1">
          <mxGeometry x="40" width="210" height="30" as="geometry">
            <mxRectangle width="210" height="30" as="alternateBounds" />
          </mxGeometry>
        </mxCell>
        <mxCell id="G9q0YJzkAukDp6qlGBMy-198" value="" style="shape=tableRow;horizontal=0;startSize=0;swimlaneHead=0;swimlaneBody=0;top=0;left=0;bottom=0;right=0;collapsible=0;dropTarget=0;fillColor=none;points=[[0,0.5],[1,0.5]];portConstraint=eastwest;strokeColor=inherit;fontSize=16;" parent="G9q0YJzkAukDp6qlGBMy-191" vertex="1">
          <mxGeometry y="90" width="250" height="30" as="geometry" />
        </mxCell>
        <mxCell id="G9q0YJzkAukDp6qlGBMy-199" value="3" style="shape=partialRectangle;html=1;whiteSpace=wrap;connectable=0;fillColor=none;top=0;left=0;bottom=0;right=0;overflow=hidden;strokeColor=inherit;fontSize=16;" parent="G9q0YJzkAukDp6qlGBMy-198" vertex="1">
          <mxGeometry width="40" height="30" as="geometry">
            <mxRectangle width="40" height="30" as="alternateBounds" />
          </mxGeometry>
        </mxCell>
        <mxCell id="G9q0YJzkAukDp6qlGBMy-200" value="objective" style="shape=partialRectangle;html=1;whiteSpace=wrap;connectable=0;fillColor=none;top=0;left=0;bottom=0;right=0;align=left;spacingLeft=6;overflow=hidden;strokeColor=inherit;fontSize=16;" parent="G9q0YJzkAukDp6qlGBMy-198" vertex="1">
          <mxGeometry x="40" width="210" height="30" as="geometry">
            <mxRectangle width="210" height="30" as="alternateBounds" />
          </mxGeometry>
        </mxCell>
        <mxCell id="G9q0YJzkAukDp6qlGBMy-201" style="shape=tableRow;horizontal=0;startSize=0;swimlaneHead=0;swimlaneBody=0;top=0;left=0;bottom=0;right=0;collapsible=0;dropTarget=0;fillColor=none;points=[[0,0.5],[1,0.5]];portConstraint=eastwest;strokeColor=inherit;fontSize=16;" parent="G9q0YJzkAukDp6qlGBMy-191" vertex="1">
          <mxGeometry y="120" width="250" height="30" as="geometry" />
        </mxCell>
        <mxCell id="G9q0YJzkAukDp6qlGBMy-202" style="shape=partialRectangle;html=1;whiteSpace=wrap;connectable=0;fillColor=none;top=0;left=0;bottom=0;right=0;overflow=hidden;strokeColor=inherit;fontSize=16;" parent="G9q0YJzkAukDp6qlGBMy-201" vertex="1">
          <mxGeometry width="40" height="30" as="geometry">
            <mxRectangle width="40" height="30" as="alternateBounds" />
          </mxGeometry>
        </mxCell>
        <mxCell id="G9q0YJzkAukDp6qlGBMy-203" value="ExpectedStartDate" style="shape=partialRectangle;html=1;whiteSpace=wrap;connectable=0;fillColor=none;top=0;left=0;bottom=0;right=0;align=left;spacingLeft=6;overflow=hidden;strokeColor=inherit;fontSize=16;" parent="G9q0YJzkAukDp6qlGBMy-201" vertex="1">
          <mxGeometry x="40" width="210" height="30" as="geometry">
            <mxRectangle width="210" height="30" as="alternateBounds" />
          </mxGeometry>
        </mxCell>
        <mxCell id="G9q0YJzkAukDp6qlGBMy-204" style="shape=tableRow;horizontal=0;startSize=0;swimlaneHead=0;swimlaneBody=0;top=0;left=0;bottom=0;right=0;collapsible=0;dropTarget=0;fillColor=none;points=[[0,0.5],[1,0.5]];portConstraint=eastwest;strokeColor=inherit;fontSize=16;" parent="G9q0YJzkAukDp6qlGBMy-191" vertex="1">
          <mxGeometry y="150" width="250" height="50" as="geometry" />
        </mxCell>
        <mxCell id="G9q0YJzkAukDp6qlGBMy-205" style="shape=partialRectangle;html=1;whiteSpace=wrap;connectable=0;fillColor=none;top=0;left=0;bottom=0;right=0;overflow=hidden;strokeColor=inherit;fontSize=16;" parent="G9q0YJzkAukDp6qlGBMy-204" vertex="1">
          <mxGeometry width="40" height="50" as="geometry">
            <mxRectangle width="40" height="50" as="alternateBounds" />
          </mxGeometry>
        </mxCell>
        <mxCell id="G9q0YJzkAukDp6qlGBMy-206" value="EstimatedBudget" style="shape=partialRectangle;html=1;whiteSpace=wrap;connectable=0;fillColor=none;top=0;left=0;bottom=0;right=0;align=left;spacingLeft=6;overflow=hidden;strokeColor=inherit;fontSize=16;" parent="G9q0YJzkAukDp6qlGBMy-204" vertex="1">
          <mxGeometry x="40" width="210" height="50" as="geometry">
            <mxRectangle width="210" height="50" as="alternateBounds" />
          </mxGeometry>
        </mxCell>
        <mxCell id="G9q0YJzkAukDp6qlGBMy-207" style="shape=tableRow;horizontal=0;startSize=0;swimlaneHead=0;swimlaneBody=0;top=0;left=0;bottom=0;right=0;collapsible=0;dropTarget=0;fillColor=none;points=[[0,0.5],[1,0.5]];portConstraint=eastwest;strokeColor=inherit;fontSize=16;" parent="G9q0YJzkAukDp6qlGBMy-191" vertex="1">
          <mxGeometry y="200" width="250" height="30" as="geometry" />
        </mxCell>
        <mxCell id="G9q0YJzkAukDp6qlGBMy-208" value="FK" style="shape=partialRectangle;html=1;whiteSpace=wrap;connectable=0;fillColor=none;top=0;left=0;bottom=0;right=0;overflow=hidden;strokeColor=inherit;fontSize=16;" parent="G9q0YJzkAukDp6qlGBMy-207" vertex="1">
          <mxGeometry width="40" height="30" as="geometry">
            <mxRectangle width="40" height="30" as="alternateBounds" />
          </mxGeometry>
        </mxCell>
        <mxCell id="G9q0YJzkAukDp6qlGBMy-209" value="DepartementID" style="shape=partialRectangle;html=1;whiteSpace=wrap;connectable=0;fillColor=none;top=0;left=0;bottom=0;right=0;align=left;spacingLeft=6;overflow=hidden;strokeColor=inherit;fontSize=16;" parent="G9q0YJzkAukDp6qlGBMy-207" vertex="1">
          <mxGeometry x="40" width="210" height="30" as="geometry">
            <mxRectangle width="210" height="30" as="alternateBounds" />
          </mxGeometry>
        </mxCell>
        <mxCell id="G9q0YJzkAukDp6qlGBMy-210" style="shape=tableRow;horizontal=0;startSize=0;swimlaneHead=0;swimlaneBody=0;top=0;left=0;bottom=0;right=0;collapsible=0;dropTarget=0;fillColor=none;points=[[0,0.5],[1,0.5]];portConstraint=eastwest;strokeColor=inherit;fontSize=16;" parent="G9q0YJzkAukDp6qlGBMy-191" vertex="1">
          <mxGeometry y="230" width="250" height="30" as="geometry" />
        </mxCell>
        <mxCell id="G9q0YJzkAukDp6qlGBMy-211" value="FK" style="shape=partialRectangle;html=1;whiteSpace=wrap;connectable=0;fillColor=none;top=0;left=0;bottom=0;right=0;overflow=hidden;strokeColor=inherit;fontSize=16;" parent="G9q0YJzkAukDp6qlGBMy-210" vertex="1">
          <mxGeometry width="40" height="30" as="geometry">
            <mxRectangle width="40" height="30" as="alternateBounds" />
          </mxGeometry>
        </mxCell>
        <mxCell id="G9q0YJzkAukDp6qlGBMy-212" value="ManagerID" style="shape=partialRectangle;html=1;whiteSpace=wrap;connectable=0;fillColor=none;top=0;left=0;bottom=0;right=0;align=left;spacingLeft=6;overflow=hidden;strokeColor=inherit;fontSize=16;" parent="G9q0YJzkAukDp6qlGBMy-210" vertex="1">
          <mxGeometry x="40" width="210" height="30" as="geometry">
            <mxRectangle width="210" height="30" as="alternateBounds" />
          </mxGeometry>
        </mxCell>
        <mxCell id="G9q0YJzkAukDp6qlGBMy-228" value="Past_Projects" style="shape=table;startSize=40;container=1;collapsible=0;childLayout=tableLayout;fixedRows=1;rowLines=0;fontStyle=0;strokeColor=default;fontSize=16;" parent="1" vertex="1">
          <mxGeometry x="1360" y="1150" width="180" height="280" as="geometry" />
        </mxCell>
        <mxCell id="G9q0YJzkAukDp6qlGBMy-229" value="" style="shape=tableRow;horizontal=0;startSize=0;swimlaneHead=0;swimlaneBody=0;top=0;left=0;bottom=0;right=0;collapsible=0;dropTarget=0;fillColor=none;points=[[0,0.5],[1,0.5]];portConstraint=eastwest;strokeColor=inherit;fontSize=16;" parent="G9q0YJzkAukDp6qlGBMy-228" vertex="1">
          <mxGeometry y="40" width="180" height="30" as="geometry" />
        </mxCell>
        <mxCell id="G9q0YJzkAukDp6qlGBMy-230" value="PK" style="shape=partialRectangle;html=1;whiteSpace=wrap;connectable=0;fillColor=none;top=0;left=0;bottom=0;right=0;overflow=hidden;pointerEvents=1;strokeColor=inherit;fontSize=16;" parent="G9q0YJzkAukDp6qlGBMy-229" vertex="1">
          <mxGeometry width="40" height="30" as="geometry">
            <mxRectangle width="40" height="30" as="alternateBounds" />
          </mxGeometry>
        </mxCell>
        <mxCell id="G9q0YJzkAukDp6qlGBMy-231" value="Past_ProjectID" style="shape=partialRectangle;html=1;whiteSpace=wrap;connectable=0;fillColor=none;top=0;left=0;bottom=0;right=0;align=left;spacingLeft=6;overflow=hidden;strokeColor=inherit;fontSize=16;" parent="G9q0YJzkAukDp6qlGBMy-229" vertex="1">
          <mxGeometry x="40" width="140" height="30" as="geometry">
            <mxRectangle width="140" height="30" as="alternateBounds" />
          </mxGeometry>
        </mxCell>
        <mxCell id="G9q0YJzkAukDp6qlGBMy-232" value="" style="shape=tableRow;horizontal=0;startSize=0;swimlaneHead=0;swimlaneBody=0;top=0;left=0;bottom=0;right=0;collapsible=0;dropTarget=0;fillColor=none;points=[[0,0.5],[1,0.5]];portConstraint=eastwest;strokeColor=inherit;fontSize=16;" parent="G9q0YJzkAukDp6qlGBMy-228" vertex="1">
          <mxGeometry y="70" width="180" height="30" as="geometry" />
        </mxCell>
        <mxCell id="G9q0YJzkAukDp6qlGBMy-233" value="" style="shape=partialRectangle;html=1;whiteSpace=wrap;connectable=0;fillColor=none;top=0;left=0;bottom=0;right=0;overflow=hidden;strokeColor=inherit;fontSize=16;" parent="G9q0YJzkAukDp6qlGBMy-232" vertex="1">
          <mxGeometry width="40" height="30" as="geometry">
            <mxRectangle width="40" height="30" as="alternateBounds" />
          </mxGeometry>
        </mxCell>
        <mxCell id="G9q0YJzkAukDp6qlGBMy-234" value="name" style="shape=partialRectangle;html=1;whiteSpace=wrap;connectable=0;fillColor=none;top=0;left=0;bottom=0;right=0;align=left;spacingLeft=6;overflow=hidden;strokeColor=inherit;fontSize=16;" parent="G9q0YJzkAukDp6qlGBMy-232" vertex="1">
          <mxGeometry x="40" width="140" height="30" as="geometry">
            <mxRectangle width="140" height="30" as="alternateBounds" />
          </mxGeometry>
        </mxCell>
        <mxCell id="G9q0YJzkAukDp6qlGBMy-235" value="" style="shape=tableRow;horizontal=0;startSize=0;swimlaneHead=0;swimlaneBody=0;top=0;left=0;bottom=0;right=0;collapsible=0;dropTarget=0;fillColor=none;points=[[0,0.5],[1,0.5]];portConstraint=eastwest;strokeColor=inherit;fontSize=16;" parent="G9q0YJzkAukDp6qlGBMy-228" vertex="1">
          <mxGeometry y="100" width="180" height="30" as="geometry" />
        </mxCell>
        <mxCell id="G9q0YJzkAukDp6qlGBMy-236" value="" style="shape=partialRectangle;html=1;whiteSpace=wrap;connectable=0;fillColor=none;top=0;left=0;bottom=0;right=0;overflow=hidden;strokeColor=inherit;fontSize=16;" parent="G9q0YJzkAukDp6qlGBMy-235" vertex="1">
          <mxGeometry width="40" height="30" as="geometry">
            <mxRectangle width="40" height="30" as="alternateBounds" />
          </mxGeometry>
        </mxCell>
        <mxCell id="G9q0YJzkAukDp6qlGBMy-237" value="description" style="shape=partialRectangle;html=1;whiteSpace=wrap;connectable=0;fillColor=none;top=0;left=0;bottom=0;right=0;align=left;spacingLeft=6;overflow=hidden;strokeColor=inherit;fontSize=16;" parent="G9q0YJzkAukDp6qlGBMy-235" vertex="1">
          <mxGeometry x="40" width="140" height="30" as="geometry">
            <mxRectangle width="140" height="30" as="alternateBounds" />
          </mxGeometry>
        </mxCell>
        <mxCell id="G9q0YJzkAukDp6qlGBMy-238" style="shape=tableRow;horizontal=0;startSize=0;swimlaneHead=0;swimlaneBody=0;top=0;left=0;bottom=0;right=0;collapsible=0;dropTarget=0;fillColor=none;points=[[0,0.5],[1,0.5]];portConstraint=eastwest;strokeColor=inherit;fontSize=16;" parent="G9q0YJzkAukDp6qlGBMy-228" vertex="1">
          <mxGeometry y="130" width="180" height="30" as="geometry" />
        </mxCell>
        <mxCell id="G9q0YJzkAukDp6qlGBMy-239" style="shape=partialRectangle;html=1;whiteSpace=wrap;connectable=0;fillColor=none;top=0;left=0;bottom=0;right=0;overflow=hidden;strokeColor=inherit;fontSize=16;" parent="G9q0YJzkAukDp6qlGBMy-238" vertex="1">
          <mxGeometry width="40" height="30" as="geometry">
            <mxRectangle width="40" height="30" as="alternateBounds" />
          </mxGeometry>
        </mxCell>
        <mxCell id="G9q0YJzkAukDp6qlGBMy-240" value="EndDate" style="shape=partialRectangle;html=1;whiteSpace=wrap;connectable=0;fillColor=none;top=0;left=0;bottom=0;right=0;align=left;spacingLeft=6;overflow=hidden;strokeColor=inherit;fontSize=16;" parent="G9q0YJzkAukDp6qlGBMy-238" vertex="1">
          <mxGeometry x="40" width="140" height="30" as="geometry">
            <mxRectangle width="140" height="30" as="alternateBounds" />
          </mxGeometry>
        </mxCell>
        <mxCell id="G9q0YJzkAukDp6qlGBMy-241" style="shape=tableRow;horizontal=0;startSize=0;swimlaneHead=0;swimlaneBody=0;top=0;left=0;bottom=0;right=0;collapsible=0;dropTarget=0;fillColor=none;points=[[0,0.5],[1,0.5]];portConstraint=eastwest;strokeColor=inherit;fontSize=16;" parent="G9q0YJzkAukDp6qlGBMy-228" vertex="1">
          <mxGeometry y="160" width="180" height="30" as="geometry" />
        </mxCell>
        <mxCell id="G9q0YJzkAukDp6qlGBMy-242" style="shape=partialRectangle;html=1;whiteSpace=wrap;connectable=0;fillColor=none;top=0;left=0;bottom=0;right=0;overflow=hidden;strokeColor=inherit;fontSize=16;" parent="G9q0YJzkAukDp6qlGBMy-241" vertex="1">
          <mxGeometry width="40" height="30" as="geometry">
            <mxRectangle width="40" height="30" as="alternateBounds" />
          </mxGeometry>
        </mxCell>
        <mxCell id="G9q0YJzkAukDp6qlGBMy-243" value="Outcome" style="shape=partialRectangle;html=1;whiteSpace=wrap;connectable=0;fillColor=none;top=0;left=0;bottom=0;right=0;align=left;spacingLeft=6;overflow=hidden;strokeColor=inherit;fontSize=16;" parent="G9q0YJzkAukDp6qlGBMy-241" vertex="1">
          <mxGeometry x="40" width="140" height="30" as="geometry">
            <mxRectangle width="140" height="30" as="alternateBounds" />
          </mxGeometry>
        </mxCell>
        <mxCell id="G9q0YJzkAukDp6qlGBMy-244" style="shape=tableRow;horizontal=0;startSize=0;swimlaneHead=0;swimlaneBody=0;top=0;left=0;bottom=0;right=0;collapsible=0;dropTarget=0;fillColor=none;points=[[0,0.5],[1,0.5]];portConstraint=eastwest;strokeColor=inherit;fontSize=16;" parent="G9q0YJzkAukDp6qlGBMy-228" vertex="1">
          <mxGeometry y="190" width="180" height="30" as="geometry" />
        </mxCell>
        <mxCell id="G9q0YJzkAukDp6qlGBMy-245" style="shape=partialRectangle;html=1;whiteSpace=wrap;connectable=0;fillColor=none;top=0;left=0;bottom=0;right=0;overflow=hidden;strokeColor=inherit;fontSize=16;" parent="G9q0YJzkAukDp6qlGBMy-244" vertex="1">
          <mxGeometry width="40" height="30" as="geometry">
            <mxRectangle width="40" height="30" as="alternateBounds" />
          </mxGeometry>
        </mxCell>
        <mxCell id="G9q0YJzkAukDp6qlGBMy-246" value="Systemversion" style="shape=partialRectangle;html=1;whiteSpace=wrap;connectable=0;fillColor=none;top=0;left=0;bottom=0;right=0;align=left;spacingLeft=6;overflow=hidden;strokeColor=inherit;fontSize=16;" parent="G9q0YJzkAukDp6qlGBMy-244" vertex="1">
          <mxGeometry x="40" width="140" height="30" as="geometry">
            <mxRectangle width="140" height="30" as="alternateBounds" />
          </mxGeometry>
        </mxCell>
        <mxCell id="G9q0YJzkAukDp6qlGBMy-247" style="shape=tableRow;horizontal=0;startSize=0;swimlaneHead=0;swimlaneBody=0;top=0;left=0;bottom=0;right=0;collapsible=0;dropTarget=0;fillColor=none;points=[[0,0.5],[1,0.5]];portConstraint=eastwest;strokeColor=inherit;fontSize=16;" parent="G9q0YJzkAukDp6qlGBMy-228" vertex="1">
          <mxGeometry y="220" width="180" height="30" as="geometry" />
        </mxCell>
        <mxCell id="G9q0YJzkAukDp6qlGBMy-248" value="FK" style="shape=partialRectangle;html=1;whiteSpace=wrap;connectable=0;fillColor=none;top=0;left=0;bottom=0;right=0;overflow=hidden;strokeColor=inherit;fontSize=16;" parent="G9q0YJzkAukDp6qlGBMy-247" vertex="1">
          <mxGeometry width="40" height="30" as="geometry">
            <mxRectangle width="40" height="30" as="alternateBounds" />
          </mxGeometry>
        </mxCell>
        <mxCell id="G9q0YJzkAukDp6qlGBMy-249" value="DepartementID" style="shape=partialRectangle;html=1;whiteSpace=wrap;connectable=0;fillColor=none;top=0;left=0;bottom=0;right=0;align=left;spacingLeft=6;overflow=hidden;strokeColor=inherit;fontSize=16;" parent="G9q0YJzkAukDp6qlGBMy-247" vertex="1">
          <mxGeometry x="40" width="140" height="30" as="geometry">
            <mxRectangle width="140" height="30" as="alternateBounds" />
          </mxGeometry>
        </mxCell>
        <mxCell id="G9q0YJzkAukDp6qlGBMy-253" style="shape=tableRow;horizontal=0;startSize=0;swimlaneHead=0;swimlaneBody=0;top=0;left=0;bottom=0;right=0;collapsible=0;dropTarget=0;fillColor=none;points=[[0,0.5],[1,0.5]];portConstraint=eastwest;strokeColor=inherit;fontSize=16;" parent="G9q0YJzkAukDp6qlGBMy-228" vertex="1">
          <mxGeometry y="250" width="180" height="30" as="geometry" />
        </mxCell>
        <mxCell id="G9q0YJzkAukDp6qlGBMy-254" value="FK" style="shape=partialRectangle;html=1;whiteSpace=wrap;connectable=0;fillColor=none;top=0;left=0;bottom=0;right=0;overflow=hidden;strokeColor=inherit;fontSize=16;" parent="G9q0YJzkAukDp6qlGBMy-253" vertex="1">
          <mxGeometry width="40" height="30" as="geometry">
            <mxRectangle width="40" height="30" as="alternateBounds" />
          </mxGeometry>
        </mxCell>
        <mxCell id="G9q0YJzkAukDp6qlGBMy-255" value="ManagerID" style="shape=partialRectangle;html=1;whiteSpace=wrap;connectable=0;fillColor=none;top=0;left=0;bottom=0;right=0;align=left;spacingLeft=6;overflow=hidden;strokeColor=inherit;fontSize=16;" parent="G9q0YJzkAukDp6qlGBMy-253" vertex="1">
          <mxGeometry x="40" width="140" height="30" as="geometry">
            <mxRectangle width="140" height="30" as="alternateBounds" />
          </mxGeometry>
        </mxCell>
        <mxCell id="G9q0YJzkAukDp6qlGBMy-256" value="Teams" style="shape=table;startSize=30;container=1;collapsible=0;childLayout=tableLayout;fixedRows=1;rowLines=0;fontStyle=0;strokeColor=default;fontSize=16;" parent="1" vertex="1">
          <mxGeometry x="-550" y="610" width="180" height="180" as="geometry" />
        </mxCell>
        <mxCell id="G9q0YJzkAukDp6qlGBMy-257" value="" style="shape=tableRow;horizontal=0;startSize=0;swimlaneHead=0;swimlaneBody=0;top=0;left=0;bottom=0;right=0;collapsible=0;dropTarget=0;fillColor=none;points=[[0,0.5],[1,0.5]];portConstraint=eastwest;strokeColor=inherit;fontSize=16;" parent="G9q0YJzkAukDp6qlGBMy-256" vertex="1">
          <mxGeometry y="30" width="180" height="30" as="geometry" />
        </mxCell>
        <mxCell id="G9q0YJzkAukDp6qlGBMy-258" value="PK" style="shape=partialRectangle;html=1;whiteSpace=wrap;connectable=0;fillColor=none;top=0;left=0;bottom=0;right=0;overflow=hidden;pointerEvents=1;strokeColor=inherit;fontSize=16;" parent="G9q0YJzkAukDp6qlGBMy-257" vertex="1">
          <mxGeometry width="40" height="30" as="geometry">
            <mxRectangle width="40" height="30" as="alternateBounds" />
          </mxGeometry>
        </mxCell>
        <mxCell id="G9q0YJzkAukDp6qlGBMy-259" value="teamID" style="shape=partialRectangle;html=1;whiteSpace=wrap;connectable=0;fillColor=none;top=0;left=0;bottom=0;right=0;align=left;spacingLeft=6;overflow=hidden;strokeColor=inherit;fontSize=16;" parent="G9q0YJzkAukDp6qlGBMy-257" vertex="1">
          <mxGeometry x="40" width="140" height="30" as="geometry">
            <mxRectangle width="140" height="30" as="alternateBounds" />
          </mxGeometry>
        </mxCell>
        <mxCell id="G9q0YJzkAukDp6qlGBMy-260" value="" style="shape=tableRow;horizontal=0;startSize=0;swimlaneHead=0;swimlaneBody=0;top=0;left=0;bottom=0;right=0;collapsible=0;dropTarget=0;fillColor=none;points=[[0,0.5],[1,0.5]];portConstraint=eastwest;strokeColor=inherit;fontSize=16;" parent="G9q0YJzkAukDp6qlGBMy-256" vertex="1">
          <mxGeometry y="60" width="180" height="30" as="geometry" />
        </mxCell>
        <mxCell id="G9q0YJzkAukDp6qlGBMy-261" value="" style="shape=partialRectangle;html=1;whiteSpace=wrap;connectable=0;fillColor=none;top=0;left=0;bottom=0;right=0;overflow=hidden;strokeColor=inherit;fontSize=16;" parent="G9q0YJzkAukDp6qlGBMy-260" vertex="1">
          <mxGeometry width="40" height="30" as="geometry">
            <mxRectangle width="40" height="30" as="alternateBounds" />
          </mxGeometry>
        </mxCell>
        <mxCell id="G9q0YJzkAukDp6qlGBMy-262" value="name" style="shape=partialRectangle;html=1;whiteSpace=wrap;connectable=0;fillColor=none;top=0;left=0;bottom=0;right=0;align=left;spacingLeft=6;overflow=hidden;strokeColor=inherit;fontSize=16;" parent="G9q0YJzkAukDp6qlGBMy-260" vertex="1">
          <mxGeometry x="40" width="140" height="30" as="geometry">
            <mxRectangle width="140" height="30" as="alternateBounds" />
          </mxGeometry>
        </mxCell>
        <mxCell id="G9q0YJzkAukDp6qlGBMy-263" value="" style="shape=tableRow;horizontal=0;startSize=0;swimlaneHead=0;swimlaneBody=0;top=0;left=0;bottom=0;right=0;collapsible=0;dropTarget=0;fillColor=none;points=[[0,0.5],[1,0.5]];portConstraint=eastwest;strokeColor=inherit;fontSize=16;" parent="G9q0YJzkAukDp6qlGBMy-256" vertex="1">
          <mxGeometry y="90" width="180" height="30" as="geometry" />
        </mxCell>
        <mxCell id="G9q0YJzkAukDp6qlGBMy-264" value="" style="shape=partialRectangle;html=1;whiteSpace=wrap;connectable=0;fillColor=none;top=0;left=0;bottom=0;right=0;overflow=hidden;strokeColor=inherit;fontSize=16;" parent="G9q0YJzkAukDp6qlGBMy-263" vertex="1">
          <mxGeometry width="40" height="30" as="geometry">
            <mxRectangle width="40" height="30" as="alternateBounds" />
          </mxGeometry>
        </mxCell>
        <mxCell id="G9q0YJzkAukDp6qlGBMy-265" value="MemberCount" style="shape=partialRectangle;html=1;whiteSpace=wrap;connectable=0;fillColor=none;top=0;left=0;bottom=0;right=0;align=left;spacingLeft=6;overflow=hidden;strokeColor=inherit;fontSize=16;" parent="G9q0YJzkAukDp6qlGBMy-263" vertex="1">
          <mxGeometry x="40" width="140" height="30" as="geometry">
            <mxRectangle width="140" height="30" as="alternateBounds" />
          </mxGeometry>
        </mxCell>
        <mxCell id="G9q0YJzkAukDp6qlGBMy-269" style="shape=tableRow;horizontal=0;startSize=0;swimlaneHead=0;swimlaneBody=0;top=0;left=0;bottom=0;right=0;collapsible=0;dropTarget=0;fillColor=none;points=[[0,0.5],[1,0.5]];portConstraint=eastwest;strokeColor=inherit;fontSize=16;" parent="G9q0YJzkAukDp6qlGBMy-256" vertex="1">
          <mxGeometry y="120" width="180" height="30" as="geometry" />
        </mxCell>
        <mxCell id="G9q0YJzkAukDp6qlGBMy-270" value="FK" style="shape=partialRectangle;html=1;whiteSpace=wrap;connectable=0;fillColor=none;top=0;left=0;bottom=0;right=0;overflow=hidden;strokeColor=inherit;fontSize=16;" parent="G9q0YJzkAukDp6qlGBMy-269" vertex="1">
          <mxGeometry width="40" height="30" as="geometry">
            <mxRectangle width="40" height="30" as="alternateBounds" />
          </mxGeometry>
        </mxCell>
        <mxCell id="G9q0YJzkAukDp6qlGBMy-271" value="ProjectID" style="shape=partialRectangle;html=1;whiteSpace=wrap;connectable=0;fillColor=none;top=0;left=0;bottom=0;right=0;align=left;spacingLeft=6;overflow=hidden;strokeColor=inherit;fontSize=16;" parent="G9q0YJzkAukDp6qlGBMy-269" vertex="1">
          <mxGeometry x="40" width="140" height="30" as="geometry">
            <mxRectangle width="140" height="30" as="alternateBounds" />
          </mxGeometry>
        </mxCell>
        <mxCell id="G9q0YJzkAukDp6qlGBMy-266" style="shape=tableRow;horizontal=0;startSize=0;swimlaneHead=0;swimlaneBody=0;top=0;left=0;bottom=0;right=0;collapsible=0;dropTarget=0;fillColor=none;points=[[0,0.5],[1,0.5]];portConstraint=eastwest;strokeColor=inherit;fontSize=16;" parent="G9q0YJzkAukDp6qlGBMy-256" vertex="1">
          <mxGeometry y="150" width="180" height="30" as="geometry" />
        </mxCell>
        <mxCell id="G9q0YJzkAukDp6qlGBMy-267" value="FK" style="shape=partialRectangle;html=1;whiteSpace=wrap;connectable=0;fillColor=none;top=0;left=0;bottom=0;right=0;overflow=hidden;strokeColor=inherit;fontSize=16;" parent="G9q0YJzkAukDp6qlGBMy-266" vertex="1">
          <mxGeometry width="40" height="30" as="geometry">
            <mxRectangle width="40" height="30" as="alternateBounds" />
          </mxGeometry>
        </mxCell>
        <mxCell id="G9q0YJzkAukDp6qlGBMy-268" value="ManagerID" style="shape=partialRectangle;html=1;whiteSpace=wrap;connectable=0;fillColor=none;top=0;left=0;bottom=0;right=0;align=left;spacingLeft=6;overflow=hidden;strokeColor=inherit;fontSize=16;" parent="G9q0YJzkAukDp6qlGBMy-266" vertex="1">
          <mxGeometry x="40" width="140" height="30" as="geometry">
            <mxRectangle width="140" height="30" as="alternateBounds" />
          </mxGeometry>
        </mxCell>
        <mxCell id="G9q0YJzkAukDp6qlGBMy-272" value="Technologies" style="shape=table;startSize=30;container=1;collapsible=0;childLayout=tableLayout;fixedRows=1;rowLines=0;fontStyle=0;strokeColor=default;fontSize=16;" parent="1" vertex="1">
          <mxGeometry x="850" y="-260" width="180" height="150" as="geometry" />
        </mxCell>
        <mxCell id="G9q0YJzkAukDp6qlGBMy-273" value="" style="shape=tableRow;horizontal=0;startSize=0;swimlaneHead=0;swimlaneBody=0;top=0;left=0;bottom=0;right=0;collapsible=0;dropTarget=0;fillColor=none;points=[[0,0.5],[1,0.5]];portConstraint=eastwest;strokeColor=inherit;fontSize=16;" parent="G9q0YJzkAukDp6qlGBMy-272" vertex="1">
          <mxGeometry y="30" width="180" height="30" as="geometry" />
        </mxCell>
        <mxCell id="G9q0YJzkAukDp6qlGBMy-274" value="PK" style="shape=partialRectangle;html=1;whiteSpace=wrap;connectable=0;fillColor=none;top=0;left=0;bottom=0;right=0;overflow=hidden;pointerEvents=1;strokeColor=inherit;fontSize=16;" parent="G9q0YJzkAukDp6qlGBMy-273" vertex="1">
          <mxGeometry width="40" height="30" as="geometry">
            <mxRectangle width="40" height="30" as="alternateBounds" />
          </mxGeometry>
        </mxCell>
        <mxCell id="G9q0YJzkAukDp6qlGBMy-275" value="TechnologieID" style="shape=partialRectangle;html=1;whiteSpace=wrap;connectable=0;fillColor=none;top=0;left=0;bottom=0;right=0;align=left;spacingLeft=6;overflow=hidden;strokeColor=inherit;fontSize=16;" parent="G9q0YJzkAukDp6qlGBMy-273" vertex="1">
          <mxGeometry x="40" width="140" height="30" as="geometry">
            <mxRectangle width="140" height="30" as="alternateBounds" />
          </mxGeometry>
        </mxCell>
        <mxCell id="G9q0YJzkAukDp6qlGBMy-276" value="" style="shape=tableRow;horizontal=0;startSize=0;swimlaneHead=0;swimlaneBody=0;top=0;left=0;bottom=0;right=0;collapsible=0;dropTarget=0;fillColor=none;points=[[0,0.5],[1,0.5]];portConstraint=eastwest;strokeColor=inherit;fontSize=16;" parent="G9q0YJzkAukDp6qlGBMy-272" vertex="1">
          <mxGeometry y="60" width="180" height="30" as="geometry" />
        </mxCell>
        <mxCell id="G9q0YJzkAukDp6qlGBMy-277" value="" style="shape=partialRectangle;html=1;whiteSpace=wrap;connectable=0;fillColor=none;top=0;left=0;bottom=0;right=0;overflow=hidden;strokeColor=inherit;fontSize=16;" parent="G9q0YJzkAukDp6qlGBMy-276" vertex="1">
          <mxGeometry width="40" height="30" as="geometry">
            <mxRectangle width="40" height="30" as="alternateBounds" />
          </mxGeometry>
        </mxCell>
        <mxCell id="G9q0YJzkAukDp6qlGBMy-278" value="Name" style="shape=partialRectangle;html=1;whiteSpace=wrap;connectable=0;fillColor=none;top=0;left=0;bottom=0;right=0;align=left;spacingLeft=6;overflow=hidden;strokeColor=inherit;fontSize=16;" parent="G9q0YJzkAukDp6qlGBMy-276" vertex="1">
          <mxGeometry x="40" width="140" height="30" as="geometry">
            <mxRectangle width="140" height="30" as="alternateBounds" />
          </mxGeometry>
        </mxCell>
        <mxCell id="G9q0YJzkAukDp6qlGBMy-279" value="" style="shape=tableRow;horizontal=0;startSize=0;swimlaneHead=0;swimlaneBody=0;top=0;left=0;bottom=0;right=0;collapsible=0;dropTarget=0;fillColor=none;points=[[0,0.5],[1,0.5]];portConstraint=eastwest;strokeColor=inherit;fontSize=16;" parent="G9q0YJzkAukDp6qlGBMy-272" vertex="1">
          <mxGeometry y="90" width="180" height="30" as="geometry" />
        </mxCell>
        <mxCell id="G9q0YJzkAukDp6qlGBMy-280" value="" style="shape=partialRectangle;html=1;whiteSpace=wrap;connectable=0;fillColor=none;top=0;left=0;bottom=0;right=0;overflow=hidden;strokeColor=inherit;fontSize=16;" parent="G9q0YJzkAukDp6qlGBMy-279" vertex="1">
          <mxGeometry width="40" height="30" as="geometry">
            <mxRectangle width="40" height="30" as="alternateBounds" />
          </mxGeometry>
        </mxCell>
        <mxCell id="G9q0YJzkAukDp6qlGBMy-281" value="type" style="shape=partialRectangle;html=1;whiteSpace=wrap;connectable=0;fillColor=none;top=0;left=0;bottom=0;right=0;align=left;spacingLeft=6;overflow=hidden;strokeColor=inherit;fontSize=16;" parent="G9q0YJzkAukDp6qlGBMy-279" vertex="1">
          <mxGeometry x="40" width="140" height="30" as="geometry">
            <mxRectangle width="140" height="30" as="alternateBounds" />
          </mxGeometry>
        </mxCell>
        <mxCell id="G9q0YJzkAukDp6qlGBMy-282" style="shape=tableRow;horizontal=0;startSize=0;swimlaneHead=0;swimlaneBody=0;top=0;left=0;bottom=0;right=0;collapsible=0;dropTarget=0;fillColor=none;points=[[0,0.5],[1,0.5]];portConstraint=eastwest;strokeColor=inherit;fontSize=16;" parent="G9q0YJzkAukDp6qlGBMy-272" vertex="1">
          <mxGeometry y="120" width="180" height="30" as="geometry" />
        </mxCell>
        <mxCell id="G9q0YJzkAukDp6qlGBMy-283" style="shape=partialRectangle;html=1;whiteSpace=wrap;connectable=0;fillColor=none;top=0;left=0;bottom=0;right=0;overflow=hidden;strokeColor=inherit;fontSize=16;" parent="G9q0YJzkAukDp6qlGBMy-282" vertex="1">
          <mxGeometry width="40" height="30" as="geometry">
            <mxRectangle width="40" height="30" as="alternateBounds" />
          </mxGeometry>
        </mxCell>
        <mxCell id="G9q0YJzkAukDp6qlGBMy-284" value="Version" style="shape=partialRectangle;html=1;whiteSpace=wrap;connectable=0;fillColor=none;top=0;left=0;bottom=0;right=0;align=left;spacingLeft=6;overflow=hidden;strokeColor=inherit;fontSize=16;" parent="G9q0YJzkAukDp6qlGBMy-282" vertex="1">
          <mxGeometry x="40" width="140" height="30" as="geometry">
            <mxRectangle width="140" height="30" as="alternateBounds" />
          </mxGeometry>
        </mxCell>
        <mxCell id="G9q0YJzkAukDp6qlGBMy-285" value="Assets" style="shape=table;startSize=30;container=1;collapsible=0;childLayout=tableLayout;fixedRows=1;rowLines=0;fontStyle=0;strokeColor=default;fontSize=16;" parent="1" vertex="1">
          <mxGeometry x="145" y="-590" width="180" height="180" as="geometry" />
        </mxCell>
        <mxCell id="G9q0YJzkAukDp6qlGBMy-286" value="" style="shape=tableRow;horizontal=0;startSize=0;swimlaneHead=0;swimlaneBody=0;top=0;left=0;bottom=0;right=0;collapsible=0;dropTarget=0;fillColor=none;points=[[0,0.5],[1,0.5]];portConstraint=eastwest;strokeColor=inherit;fontSize=16;" parent="G9q0YJzkAukDp6qlGBMy-285" vertex="1">
          <mxGeometry y="30" width="180" height="30" as="geometry" />
        </mxCell>
        <mxCell id="G9q0YJzkAukDp6qlGBMy-287" value="PK" style="shape=partialRectangle;html=1;whiteSpace=wrap;connectable=0;fillColor=none;top=0;left=0;bottom=0;right=0;overflow=hidden;pointerEvents=1;strokeColor=inherit;fontSize=16;" parent="G9q0YJzkAukDp6qlGBMy-286" vertex="1">
          <mxGeometry width="40" height="30" as="geometry">
            <mxRectangle width="40" height="30" as="alternateBounds" />
          </mxGeometry>
        </mxCell>
        <mxCell id="G9q0YJzkAukDp6qlGBMy-288" value="AssetsID" style="shape=partialRectangle;html=1;whiteSpace=wrap;connectable=0;fillColor=none;top=0;left=0;bottom=0;right=0;align=left;spacingLeft=6;overflow=hidden;strokeColor=inherit;fontSize=16;" parent="G9q0YJzkAukDp6qlGBMy-286" vertex="1">
          <mxGeometry x="40" width="140" height="30" as="geometry">
            <mxRectangle width="140" height="30" as="alternateBounds" />
          </mxGeometry>
        </mxCell>
        <mxCell id="G9q0YJzkAukDp6qlGBMy-289" value="" style="shape=tableRow;horizontal=0;startSize=0;swimlaneHead=0;swimlaneBody=0;top=0;left=0;bottom=0;right=0;collapsible=0;dropTarget=0;fillColor=none;points=[[0,0.5],[1,0.5]];portConstraint=eastwest;strokeColor=inherit;fontSize=16;" parent="G9q0YJzkAukDp6qlGBMy-285" vertex="1">
          <mxGeometry y="60" width="180" height="30" as="geometry" />
        </mxCell>
        <mxCell id="G9q0YJzkAukDp6qlGBMy-290" value="" style="shape=partialRectangle;html=1;whiteSpace=wrap;connectable=0;fillColor=none;top=0;left=0;bottom=0;right=0;overflow=hidden;strokeColor=inherit;fontSize=16;" parent="G9q0YJzkAukDp6qlGBMy-289" vertex="1">
          <mxGeometry width="40" height="30" as="geometry">
            <mxRectangle width="40" height="30" as="alternateBounds" />
          </mxGeometry>
        </mxCell>
        <mxCell id="G9q0YJzkAukDp6qlGBMy-291" value="name" style="shape=partialRectangle;html=1;whiteSpace=wrap;connectable=0;fillColor=none;top=0;left=0;bottom=0;right=0;align=left;spacingLeft=6;overflow=hidden;strokeColor=inherit;fontSize=16;" parent="G9q0YJzkAukDp6qlGBMy-289" vertex="1">
          <mxGeometry x="40" width="140" height="30" as="geometry">
            <mxRectangle width="140" height="30" as="alternateBounds" />
          </mxGeometry>
        </mxCell>
        <mxCell id="G9q0YJzkAukDp6qlGBMy-292" value="" style="shape=tableRow;horizontal=0;startSize=0;swimlaneHead=0;swimlaneBody=0;top=0;left=0;bottom=0;right=0;collapsible=0;dropTarget=0;fillColor=none;points=[[0,0.5],[1,0.5]];portConstraint=eastwest;strokeColor=inherit;fontSize=16;" parent="G9q0YJzkAukDp6qlGBMy-285" vertex="1">
          <mxGeometry y="90" width="180" height="30" as="geometry" />
        </mxCell>
        <mxCell id="G9q0YJzkAukDp6qlGBMy-293" value="" style="shape=partialRectangle;html=1;whiteSpace=wrap;connectable=0;fillColor=none;top=0;left=0;bottom=0;right=0;overflow=hidden;strokeColor=inherit;fontSize=16;" parent="G9q0YJzkAukDp6qlGBMy-292" vertex="1">
          <mxGeometry width="40" height="30" as="geometry">
            <mxRectangle width="40" height="30" as="alternateBounds" />
          </mxGeometry>
        </mxCell>
        <mxCell id="G9q0YJzkAukDp6qlGBMy-294" value="type" style="shape=partialRectangle;html=1;whiteSpace=wrap;connectable=0;fillColor=none;top=0;left=0;bottom=0;right=0;align=left;spacingLeft=6;overflow=hidden;strokeColor=inherit;fontSize=16;" parent="G9q0YJzkAukDp6qlGBMy-292" vertex="1">
          <mxGeometry x="40" width="140" height="30" as="geometry">
            <mxRectangle width="140" height="30" as="alternateBounds" />
          </mxGeometry>
        </mxCell>
        <mxCell id="G9q0YJzkAukDp6qlGBMy-295" style="shape=tableRow;horizontal=0;startSize=0;swimlaneHead=0;swimlaneBody=0;top=0;left=0;bottom=0;right=0;collapsible=0;dropTarget=0;fillColor=none;points=[[0,0.5],[1,0.5]];portConstraint=eastwest;strokeColor=inherit;fontSize=16;" parent="G9q0YJzkAukDp6qlGBMy-285" vertex="1">
          <mxGeometry y="120" width="180" height="30" as="geometry" />
        </mxCell>
        <mxCell id="G9q0YJzkAukDp6qlGBMy-296" style="shape=partialRectangle;html=1;whiteSpace=wrap;connectable=0;fillColor=none;top=0;left=0;bottom=0;right=0;overflow=hidden;strokeColor=inherit;fontSize=16;" parent="G9q0YJzkAukDp6qlGBMy-295" vertex="1">
          <mxGeometry width="40" height="30" as="geometry">
            <mxRectangle width="40" height="30" as="alternateBounds" />
          </mxGeometry>
        </mxCell>
        <mxCell id="G9q0YJzkAukDp6qlGBMy-297" value="Location" style="shape=partialRectangle;html=1;whiteSpace=wrap;connectable=0;fillColor=none;top=0;left=0;bottom=0;right=0;align=left;spacingLeft=6;overflow=hidden;strokeColor=inherit;fontSize=16;" parent="G9q0YJzkAukDp6qlGBMy-295" vertex="1">
          <mxGeometry x="40" width="140" height="30" as="geometry">
            <mxRectangle width="140" height="30" as="alternateBounds" />
          </mxGeometry>
        </mxCell>
        <mxCell id="G9q0YJzkAukDp6qlGBMy-298" style="shape=tableRow;horizontal=0;startSize=0;swimlaneHead=0;swimlaneBody=0;top=0;left=0;bottom=0;right=0;collapsible=0;dropTarget=0;fillColor=none;points=[[0,0.5],[1,0.5]];portConstraint=eastwest;strokeColor=inherit;fontSize=16;" parent="G9q0YJzkAukDp6qlGBMy-285" vertex="1">
          <mxGeometry y="150" width="180" height="30" as="geometry" />
        </mxCell>
        <mxCell id="G9q0YJzkAukDp6qlGBMy-299" value="FK" style="shape=partialRectangle;html=1;whiteSpace=wrap;connectable=0;fillColor=none;top=0;left=0;bottom=0;right=0;overflow=hidden;strokeColor=inherit;fontSize=16;" parent="G9q0YJzkAukDp6qlGBMy-298" vertex="1">
          <mxGeometry width="40" height="30" as="geometry">
            <mxRectangle width="40" height="30" as="alternateBounds" />
          </mxGeometry>
        </mxCell>
        <mxCell id="G9q0YJzkAukDp6qlGBMy-300" value="ProjectID" style="shape=partialRectangle;html=1;whiteSpace=wrap;connectable=0;fillColor=none;top=0;left=0;bottom=0;right=0;align=left;spacingLeft=6;overflow=hidden;strokeColor=inherit;fontSize=16;" parent="G9q0YJzkAukDp6qlGBMy-298" vertex="1">
          <mxGeometry x="40" width="140" height="30" as="geometry">
            <mxRectangle width="140" height="30" as="alternateBounds" />
          </mxGeometry>
        </mxCell>
        <mxCell id="G9q0YJzkAukDp6qlGBMy-301" style="edgeStyle=orthogonalEdgeStyle;rounded=0;orthogonalLoop=1;jettySize=auto;html=1;entryX=0.497;entryY=-0.011;entryDx=0;entryDy=0;entryPerimeter=0;exitX=0.19;exitY=0.857;exitDx=0;exitDy=0;exitPerimeter=0;" parent="1" edge="1">
          <mxGeometry relative="1" as="geometry">
            <mxPoint x="74.525" y="238.46499999999972" as="targetPoint" />
            <mxPoint x="-159.99999999999986" y="-230.0000000000002" as="sourcePoint" />
            <Array as="points">
              <mxPoint x="-157.6" y="-229.71" />
              <mxPoint x="-157.6" y="134.29" />
              <mxPoint x="384.4" y="134.29" />
              <mxPoint x="384.4" y="238.29" />
            </Array>
          </mxGeometry>
        </mxCell>
        <mxCell id="G9q0YJzkAukDp6qlGBMy-303" style="edgeStyle=orthogonalEdgeStyle;rounded=0;orthogonalLoop=1;jettySize=auto;html=1;entryX=0.5;entryY=0;entryDx=0;entryDy=0;" parent="1" source="G9q0YJzkAukDp6qlGBMy-305" target="G9q0YJzkAukDp6qlGBMy-69" edge="1">
          <mxGeometry relative="1" as="geometry" />
        </mxCell>
        <mxCell id="G9q0YJzkAukDp6qlGBMy-302" value="Supervises" style="html=1;whiteSpace=wrap;aspect=fixed;shape=isoRectangle;" parent="1" vertex="1">
          <mxGeometry x="20" y="235" width="125" height="75" as="geometry" />
        </mxCell>
        <mxCell id="G9q0YJzkAukDp6qlGBMy-307" value="Manages" style="rhombus;whiteSpace=wrap;html=1;" parent="1" vertex="1">
          <mxGeometry x="890" y="215" width="80" height="80" as="geometry" />
        </mxCell>
        <mxCell id="G9q0YJzkAukDp6qlGBMy-309" style="edgeStyle=orthogonalEdgeStyle;rounded=0;orthogonalLoop=1;jettySize=auto;html=1;exitX=0.999;exitY=0.534;exitDx=0;exitDy=0;entryX=0.5;entryY=1;entryDx=0;entryDy=0;exitPerimeter=0;" parent="1" source="G9q0YJzkAukDp6qlGBMy-311" target="G9q0YJzkAukDp6qlGBMy-307" edge="1">
          <mxGeometry relative="1" as="geometry" />
        </mxCell>
        <mxCell id="G9q0YJzkAukDp6qlGBMy-310" style="edgeStyle=orthogonalEdgeStyle;rounded=0;orthogonalLoop=1;jettySize=auto;html=1;exitX=0.5;exitY=0;exitDx=0;exitDy=0;entryX=-0.016;entryY=0.386;entryDx=0;entryDy=0;entryPerimeter=0;" parent="1" source="G9q0YJzkAukDp6qlGBMy-307" target="G9q0YJzkAukDp6qlGBMy-312" edge="1">
          <mxGeometry relative="1" as="geometry" />
        </mxCell>
        <mxCell id="G9q0YJzkAukDp6qlGBMy-311" value="&lt;font style=&quot;font-size: 24px;&quot;&gt;1,1&lt;/font&gt;" style="text;html=1;align=center;verticalAlign=middle;resizable=0;points=[];autosize=1;strokeColor=none;fillColor=none;" parent="1" vertex="1">
          <mxGeometry x="620" y="400" width="60" height="40" as="geometry" />
        </mxCell>
        <mxCell id="G9q0YJzkAukDp6qlGBMy-312" value="1,N" style="text;html=1;align=center;verticalAlign=middle;resizable=0;points=[];autosize=1;strokeColor=none;fillColor=none;" parent="1" vertex="1">
          <mxGeometry x="1030" y="20" width="40" height="30" as="geometry" />
        </mxCell>
        <mxCell id="G9q0YJzkAukDp6qlGBMy-314" value="Leads" style="rhombus;whiteSpace=wrap;html=1;" parent="1" vertex="1">
          <mxGeometry x="640" y="-440" width="150" height="110" as="geometry" />
        </mxCell>
        <mxCell id="G9q0YJzkAukDp6qlGBMy-318" style="edgeStyle=orthogonalEdgeStyle;rounded=0;orthogonalLoop=1;jettySize=auto;html=1;exitX=0.5;exitY=0;exitDx=0;exitDy=0;entryX=-0.045;entryY=0.397;entryDx=0;entryDy=0;entryPerimeter=0;" parent="1" source="G9q0YJzkAukDp6qlGBMy-314" target="G9q0YJzkAukDp6qlGBMy-320" edge="1">
          <mxGeometry relative="1" as="geometry">
            <Array as="points">
              <mxPoint x="715" y="-640" />
              <mxPoint x="928" y="-640" />
            </Array>
          </mxGeometry>
        </mxCell>
        <mxCell id="G9q0YJzkAukDp6qlGBMy-319" value="1,1" style="text;html=1;align=center;verticalAlign=middle;resizable=0;points=[];autosize=1;strokeColor=none;fillColor=none;" parent="1" vertex="1">
          <mxGeometry x="570" y="295" width="40" height="30" as="geometry" />
        </mxCell>
        <mxCell id="G9q0YJzkAukDp6qlGBMy-320" value="1,N" style="text;html=1;align=center;verticalAlign=middle;resizable=0;points=[];autosize=1;strokeColor=none;fillColor=none;" parent="1" vertex="1">
          <mxGeometry x="930" y="-780" width="40" height="30" as="geometry" />
        </mxCell>
        <mxCell id="G9q0YJzkAukDp6qlGBMy-321" style="edgeStyle=orthogonalEdgeStyle;rounded=0;orthogonalLoop=1;jettySize=auto;html=1;exitX=0;exitY=0.5;exitDx=0;exitDy=0;entryX=0.5;entryY=0;entryDx=0;entryDy=0;" parent="1" source="G9q0YJzkAukDp6qlGBMy-73" target="G9q0YJzkAukDp6qlGBMy-322" edge="1">
          <mxGeometry relative="1" as="geometry">
            <mxPoint x="-30" y="430" as="targetPoint" />
            <Array as="points">
              <mxPoint x="60" y="415" />
              <mxPoint x="60" y="350" />
              <mxPoint x="-240" y="350" />
            </Array>
          </mxGeometry>
        </mxCell>
        <mxCell id="G9q0YJzkAukDp6qlGBMy-323" style="edgeStyle=orthogonalEdgeStyle;rounded=0;orthogonalLoop=1;jettySize=auto;html=1;exitX=0.5;exitY=1;exitDx=0;exitDy=0;entryX=1;entryY=0.5;entryDx=0;entryDy=0;" parent="1" source="G9q0YJzkAukDp6qlGBMy-322" target="G9q0YJzkAukDp6qlGBMy-257" edge="1">
          <mxGeometry relative="1" as="geometry">
            <Array as="points">
              <mxPoint x="-360" y="410" />
              <mxPoint x="-360" y="570" />
              <mxPoint x="-340" y="570" />
              <mxPoint x="-340" y="655" />
            </Array>
          </mxGeometry>
        </mxCell>
        <mxCell id="G9q0YJzkAukDp6qlGBMy-322" value="Supervises" style="rhombus;whiteSpace=wrap;html=1;" parent="1" vertex="1">
          <mxGeometry x="-280" y="330" width="80" height="80" as="geometry" />
        </mxCell>
        <mxCell id="G9q0YJzkAukDp6qlGBMy-324" value="1,1" style="text;html=1;align=center;verticalAlign=middle;resizable=0;points=[];autosize=1;strokeColor=none;fillColor=none;" parent="1" vertex="1">
          <mxGeometry x="280" y="378" width="40" height="30" as="geometry" />
        </mxCell>
        <mxCell id="G9q0YJzkAukDp6qlGBMy-325" value="1,N" style="text;html=1;align=center;verticalAlign=middle;resizable=0;points=[];autosize=1;strokeColor=none;fillColor=none;" parent="1" vertex="1">
          <mxGeometry x="-370" y="618" width="40" height="30" as="geometry" />
        </mxCell>
        <mxCell id="G9q0YJzkAukDp6qlGBMy-328" style="edgeStyle=orthogonalEdgeStyle;rounded=0;orthogonalLoop=1;jettySize=auto;html=1;exitX=0;exitY=0.5;exitDx=0;exitDy=0;entryX=1;entryY=0.5;entryDx=0;entryDy=0;" parent="1" source="G9q0YJzkAukDp6qlGBMy-327" target="G9q0YJzkAukDp6qlGBMy-89" edge="1">
          <mxGeometry relative="1" as="geometry" />
        </mxCell>
        <mxCell id="G9q0YJzkAukDp6qlGBMy-330" value="1,N" style="edgeLabel;html=1;align=center;verticalAlign=middle;resizable=0;points=[];" parent="G9q0YJzkAukDp6qlGBMy-328" vertex="1" connectable="0">
          <mxGeometry x="0.7297" y="-7" relative="1" as="geometry">
            <mxPoint x="-5" y="-8" as="offset" />
          </mxGeometry>
        </mxCell>
        <mxCell id="G9q0YJzkAukDp6qlGBMy-327" value="Has" style="rhombus;whiteSpace=wrap;html=1;" parent="1" vertex="1">
          <mxGeometry x="660" y="620" width="80" height="80" as="geometry" />
        </mxCell>
        <mxCell id="G9q0YJzkAukDp6qlGBMy-353" style="edgeStyle=orthogonalEdgeStyle;rounded=0;orthogonalLoop=1;jettySize=auto;html=1;" parent="1" source="G9q0YJzkAukDp6qlGBMy-329" target="G9q0YJzkAukDp6qlGBMy-92" edge="1">
          <mxGeometry relative="1" as="geometry">
            <Array as="points">
              <mxPoint x="1050" y="780" />
              <mxPoint x="1090" y="780" />
              <mxPoint x="1090" y="770" />
              <mxPoint x="1040" y="770" />
            </Array>
          </mxGeometry>
        </mxCell>
        <mxCell id="G9q0YJzkAukDp6qlGBMy-329" value="1,1" style="text;html=1;align=center;verticalAlign=middle;resizable=0;points=[];autosize=1;strokeColor=none;fillColor=none;" parent="1" vertex="1">
          <mxGeometry x="1030" y="710" width="40" height="30" as="geometry" />
        </mxCell>
        <mxCell id="G9q0YJzkAukDp6qlGBMy-92" value="Departement" style="shape=table;startSize=30;container=1;collapsible=0;childLayout=tableLayout;fixedRows=1;rowLines=0;fontStyle=0;strokeColor=default;fontSize=16;" parent="1" vertex="1">
          <mxGeometry x="1020" y="790" width="180" height="120" as="geometry" />
        </mxCell>
        <mxCell id="G9q0YJzkAukDp6qlGBMy-93" value="" style="shape=tableRow;horizontal=0;startSize=0;swimlaneHead=0;swimlaneBody=0;top=0;left=0;bottom=0;right=0;collapsible=0;dropTarget=0;fillColor=none;points=[[0,0.5],[1,0.5]];portConstraint=eastwest;strokeColor=inherit;fontSize=16;" parent="G9q0YJzkAukDp6qlGBMy-92" vertex="1">
          <mxGeometry y="30" width="180" height="30" as="geometry" />
        </mxCell>
        <mxCell id="G9q0YJzkAukDp6qlGBMy-94" value="PK" style="shape=partialRectangle;html=1;whiteSpace=wrap;connectable=0;fillColor=none;top=0;left=0;bottom=0;right=0;overflow=hidden;pointerEvents=1;strokeColor=inherit;fontSize=16;" parent="G9q0YJzkAukDp6qlGBMy-93" vertex="1">
          <mxGeometry width="40" height="30" as="geometry">
            <mxRectangle width="40" height="30" as="alternateBounds" />
          </mxGeometry>
        </mxCell>
        <mxCell id="G9q0YJzkAukDp6qlGBMy-95" value="DepartementID" style="shape=partialRectangle;html=1;whiteSpace=wrap;connectable=0;fillColor=none;top=0;left=0;bottom=0;right=0;align=left;spacingLeft=6;overflow=hidden;strokeColor=inherit;fontSize=16;" parent="G9q0YJzkAukDp6qlGBMy-93" vertex="1">
          <mxGeometry x="40" width="140" height="30" as="geometry">
            <mxRectangle width="140" height="30" as="alternateBounds" />
          </mxGeometry>
        </mxCell>
        <mxCell id="G9q0YJzkAukDp6qlGBMy-96" value="" style="shape=tableRow;horizontal=0;startSize=0;swimlaneHead=0;swimlaneBody=0;top=0;left=0;bottom=0;right=0;collapsible=0;dropTarget=0;fillColor=none;points=[[0,0.5],[1,0.5]];portConstraint=eastwest;strokeColor=inherit;fontSize=16;" parent="G9q0YJzkAukDp6qlGBMy-92" vertex="1">
          <mxGeometry y="60" width="180" height="30" as="geometry" />
        </mxCell>
        <mxCell id="G9q0YJzkAukDp6qlGBMy-97" value="" style="shape=partialRectangle;html=1;whiteSpace=wrap;connectable=0;fillColor=none;top=0;left=0;bottom=0;right=0;overflow=hidden;strokeColor=inherit;fontSize=16;" parent="G9q0YJzkAukDp6qlGBMy-96" vertex="1">
          <mxGeometry width="40" height="30" as="geometry">
            <mxRectangle width="40" height="30" as="alternateBounds" />
          </mxGeometry>
        </mxCell>
        <mxCell id="G9q0YJzkAukDp6qlGBMy-98" value="name" style="shape=partialRectangle;html=1;whiteSpace=wrap;connectable=0;fillColor=none;top=0;left=0;bottom=0;right=0;align=left;spacingLeft=6;overflow=hidden;strokeColor=inherit;fontSize=16;" parent="G9q0YJzkAukDp6qlGBMy-96" vertex="1">
          <mxGeometry x="40" width="140" height="30" as="geometry">
            <mxRectangle width="140" height="30" as="alternateBounds" />
          </mxGeometry>
        </mxCell>
        <mxCell id="G9q0YJzkAukDp6qlGBMy-331" style="shape=tableRow;horizontal=0;startSize=0;swimlaneHead=0;swimlaneBody=0;top=0;left=0;bottom=0;right=0;collapsible=0;dropTarget=0;fillColor=none;points=[[0,0.5],[1,0.5]];portConstraint=eastwest;strokeColor=inherit;fontSize=16;" parent="G9q0YJzkAukDp6qlGBMy-92" vertex="1">
          <mxGeometry y="90" width="180" height="30" as="geometry" />
        </mxCell>
        <mxCell id="G9q0YJzkAukDp6qlGBMy-332" style="shape=partialRectangle;html=1;whiteSpace=wrap;connectable=0;fillColor=none;top=0;left=0;bottom=0;right=0;overflow=hidden;strokeColor=inherit;fontSize=16;" parent="G9q0YJzkAukDp6qlGBMy-331" vertex="1">
          <mxGeometry width="40" height="30" as="geometry">
            <mxRectangle width="40" height="30" as="alternateBounds" />
          </mxGeometry>
        </mxCell>
        <mxCell id="G9q0YJzkAukDp6qlGBMy-333" value="Description" style="shape=partialRectangle;html=1;whiteSpace=wrap;connectable=0;fillColor=none;top=0;left=0;bottom=0;right=0;align=left;spacingLeft=6;overflow=hidden;strokeColor=inherit;fontSize=16;" parent="G9q0YJzkAukDp6qlGBMy-331" vertex="1">
          <mxGeometry x="40" width="140" height="30" as="geometry">
            <mxRectangle width="140" height="30" as="alternateBounds" />
          </mxGeometry>
        </mxCell>
        <mxCell id="G9q0YJzkAukDp6qlGBMy-334" style="edgeStyle=orthogonalEdgeStyle;rounded=0;orthogonalLoop=1;jettySize=auto;html=1;exitX=1;exitY=0.5;exitDx=0;exitDy=0;" parent="1" source="G9q0YJzkAukDp6qlGBMy-93" edge="1">
          <mxGeometry relative="1" as="geometry">
            <mxPoint x="1450" y="510" as="targetPoint" />
          </mxGeometry>
        </mxCell>
        <mxCell id="G9q0YJzkAukDp6qlGBMy-336" style="edgeStyle=orthogonalEdgeStyle;rounded=0;orthogonalLoop=1;jettySize=auto;html=1;exitX=0.5;exitY=0;exitDx=0;exitDy=0;entryX=0.932;entryY=0.548;entryDx=0;entryDy=0;entryPerimeter=0;" parent="1" source="G9q0YJzkAukDp6qlGBMy-335" target="G9q0YJzkAukDp6qlGBMy-338" edge="1">
          <mxGeometry relative="1" as="geometry">
            <Array as="points">
              <mxPoint x="1450" y="10" />
              <mxPoint x="1337" y="10" />
            </Array>
          </mxGeometry>
        </mxCell>
        <mxCell id="G9q0YJzkAukDp6qlGBMy-335" value="Contain" style="rhombus;whiteSpace=wrap;html=1;" parent="1" vertex="1">
          <mxGeometry x="1410" y="440" width="80" height="80" as="geometry" />
        </mxCell>
        <mxCell id="G9q0YJzkAukDp6qlGBMy-337" value="1,1" style="text;html=1;align=center;verticalAlign=middle;resizable=0;points=[];autosize=1;strokeColor=none;fillColor=none;rotation=0;" parent="1" vertex="1">
          <mxGeometry x="1200" y="800" width="40" height="30" as="geometry" />
        </mxCell>
        <mxCell id="G9q0YJzkAukDp6qlGBMy-338" value="1,N" style="text;html=1;align=center;verticalAlign=middle;resizable=0;points=[];autosize=1;strokeColor=none;fillColor=none;" parent="1" vertex="1">
          <mxGeometry x="1300" y="-2" width="40" height="30" as="geometry" />
        </mxCell>
        <mxCell id="G9q0YJzkAukDp6qlGBMy-339" style="edgeStyle=orthogonalEdgeStyle;rounded=0;orthogonalLoop=1;jettySize=auto;html=1;exitX=1;exitY=0.5;exitDx=0;exitDy=0;" parent="1" source="G9q0YJzkAukDp6qlGBMy-331" edge="1">
          <mxGeometry relative="1" as="geometry">
            <mxPoint x="1620" y="280" as="targetPoint" />
          </mxGeometry>
        </mxCell>
        <mxCell id="G9q0YJzkAukDp6qlGBMy-341" style="edgeStyle=orthogonalEdgeStyle;rounded=0;orthogonalLoop=1;jettySize=auto;html=1;exitX=0.5;exitY=0;exitDx=0;exitDy=0;entryX=1;entryY=0;entryDx=0;entryDy=0;" parent="1" source="G9q0YJzkAukDp6qlGBMy-340" target="G9q0YJzkAukDp6qlGBMy-160" edge="1">
          <mxGeometry relative="1" as="geometry" />
        </mxCell>
        <mxCell id="G9q0YJzkAukDp6qlGBMy-340" value="Oversees" style="rhombus;whiteSpace=wrap;html=1;" parent="1" vertex="1">
          <mxGeometry x="1580" y="210" width="80" height="80" as="geometry" />
        </mxCell>
        <mxCell id="G9q0YJzkAukDp6qlGBMy-342" value="1,1" style="text;html=1;align=center;verticalAlign=middle;resizable=0;points=[];autosize=1;strokeColor=none;fillColor=none;" parent="1" vertex="1">
          <mxGeometry x="1200" y="868" width="40" height="30" as="geometry" />
        </mxCell>
        <mxCell id="G9q0YJzkAukDp6qlGBMy-343" value="1,N" style="text;html=1;align=center;verticalAlign=middle;resizable=0;points=[];autosize=1;strokeColor=none;fillColor=none;" parent="1" vertex="1">
          <mxGeometry x="1190" y="-892" width="40" height="30" as="geometry" />
        </mxCell>
        <mxCell id="G9q0YJzkAukDp6qlGBMy-344" value="" style="edgeStyle=orthogonalEdgeStyle;rounded=0;orthogonalLoop=1;jettySize=auto;html=1;entryX=0.5;entryY=0;entryDx=0;entryDy=0;" parent="1" source="G9q0YJzkAukDp6qlGBMy-302" target="G9q0YJzkAukDp6qlGBMy-305" edge="1">
          <mxGeometry relative="1" as="geometry">
            <mxPoint x="145" y="273" as="sourcePoint" />
            <mxPoint x="445" y="340" as="targetPoint" />
          </mxGeometry>
        </mxCell>
        <mxCell id="G9q0YJzkAukDp6qlGBMy-305" value="&lt;font style=&quot;font-size: 24px;&quot;&gt;1,N&lt;/font&gt;" style="text;html=1;align=center;verticalAlign=middle;resizable=0;points=[];autosize=1;strokeColor=none;fillColor=none;" parent="1" vertex="1">
          <mxGeometry x="425" y="270" width="60" height="40" as="geometry" />
        </mxCell>
        <mxCell id="G9q0YJzkAukDp6qlGBMy-347" style="edgeStyle=orthogonalEdgeStyle;rounded=0;orthogonalLoop=1;jettySize=auto;html=1;entryX=1;entryY=0.5;entryDx=0;entryDy=0;" parent="1" source="G9q0YJzkAukDp6qlGBMy-346" target="G9q0YJzkAukDp6qlGBMy-12" edge="1">
          <mxGeometry relative="1" as="geometry" />
        </mxCell>
        <mxCell id="G9q0YJzkAukDp6qlGBMy-346" value="1,1" style="text;html=1;align=center;verticalAlign=middle;resizable=0;points=[];autosize=1;strokeColor=none;fillColor=none;" parent="1" vertex="1">
          <mxGeometry x="-170" y="-250" width="40" height="30" as="geometry" />
        </mxCell>
        <mxCell id="G9q0YJzkAukDp6qlGBMy-348" style="edgeStyle=orthogonalEdgeStyle;rounded=0;orthogonalLoop=1;jettySize=auto;html=1;entryX=1.009;entryY=0.79;entryDx=0;entryDy=0;entryPerimeter=0;" parent="1" source="G9q0YJzkAukDp6qlGBMy-311" target="G9q0YJzkAukDp6qlGBMy-73" edge="1">
          <mxGeometry relative="1" as="geometry" />
        </mxCell>
        <mxCell id="G9q0YJzkAukDp6qlGBMy-349" style="edgeStyle=orthogonalEdgeStyle;rounded=0;orthogonalLoop=1;jettySize=auto;html=1;entryX=0.013;entryY=0.074;entryDx=0;entryDy=0;entryPerimeter=0;" parent="1" source="G9q0YJzkAukDp6qlGBMy-312" target="G9q0YJzkAukDp6qlGBMy-112" edge="1">
          <mxGeometry relative="1" as="geometry" />
        </mxCell>
        <mxCell id="G9q0YJzkAukDp6qlGBMy-350" style="edgeStyle=orthogonalEdgeStyle;rounded=0;orthogonalLoop=1;jettySize=auto;html=1;entryX=1.015;entryY=0.053;entryDx=0;entryDy=0;entryPerimeter=0;" parent="1" source="G9q0YJzkAukDp6qlGBMy-319" target="G9q0YJzkAukDp6qlGBMy-69" edge="1">
          <mxGeometry relative="1" as="geometry" />
        </mxCell>
        <mxCell id="G9q0YJzkAukDp6qlGBMy-351" style="edgeStyle=orthogonalEdgeStyle;rounded=0;orthogonalLoop=1;jettySize=auto;html=1;" parent="1" edge="1">
          <mxGeometry relative="1" as="geometry">
            <mxPoint x="970" y="-760" as="sourcePoint" />
            <mxPoint x="1008" y="-750" as="targetPoint" />
            <Array as="points">
              <mxPoint x="970" y="-760" />
              <mxPoint x="1008" y="-760" />
            </Array>
          </mxGeometry>
        </mxCell>
        <mxCell id="G9q0YJzkAukDp6qlGBMy-352" style="edgeStyle=orthogonalEdgeStyle;rounded=0;orthogonalLoop=1;jettySize=auto;html=1;entryX=0.899;entryY=0.013;entryDx=0;entryDy=0;entryPerimeter=0;" parent="1" source="G9q0YJzkAukDp6qlGBMy-338" target="G9q0YJzkAukDp6qlGBMy-112" edge="1">
          <mxGeometry relative="1" as="geometry" />
        </mxCell>
        <mxCell id="G9q0YJzkAukDp6qlGBMy-354" style="edgeStyle=orthogonalEdgeStyle;rounded=0;orthogonalLoop=1;jettySize=auto;html=1;exitX=-0.187;exitY=0.667;exitDx=0;exitDy=0;exitPerimeter=0;" parent="1" source="G9q0YJzkAukDp6qlGBMy-357" target="G9q0YJzkAukDp6qlGBMy-355" edge="1">
          <mxGeometry relative="1" as="geometry">
            <mxPoint x="1040" y="510" as="targetPoint" />
          </mxGeometry>
        </mxCell>
        <mxCell id="G9q0YJzkAukDp6qlGBMy-356" style="edgeStyle=orthogonalEdgeStyle;rounded=0;orthogonalLoop=1;jettySize=auto;html=1;entryX=0.438;entryY=0.15;entryDx=0;entryDy=0;entryPerimeter=0;" parent="1" source="G9q0YJzkAukDp6qlGBMy-355" target="G9q0YJzkAukDp6qlGBMy-360" edge="1">
          <mxGeometry relative="1" as="geometry">
            <mxPoint x="650" y="500" as="targetPoint" />
          </mxGeometry>
        </mxCell>
        <mxCell id="G9q0YJzkAukDp6qlGBMy-355" value="Report_to" style="rhombus;whiteSpace=wrap;html=1;direction=west;" parent="1" vertex="1">
          <mxGeometry x="1000" y="470" width="80" height="80" as="geometry" />
        </mxCell>
        <mxCell id="G9q0YJzkAukDp6qlGBMy-357" value="N,1" style="text;html=1;align=center;verticalAlign=middle;resizable=0;points=[];autosize=1;strokeColor=none;fillColor=none;" parent="1" vertex="1">
          <mxGeometry x="1050" y="290" width="40" height="30" as="geometry" />
        </mxCell>
        <mxCell id="G9q0YJzkAukDp6qlGBMy-359" style="edgeStyle=orthogonalEdgeStyle;rounded=0;orthogonalLoop=1;jettySize=auto;html=1;entryX=0;entryY=0.5;entryDx=0;entryDy=0;" parent="1" source="G9q0YJzkAukDp6qlGBMy-357" target="G9q0YJzkAukDp6qlGBMy-140" edge="1">
          <mxGeometry relative="1" as="geometry" />
        </mxCell>
        <mxCell id="G9q0YJzkAukDp6qlGBMy-361" style="edgeStyle=orthogonalEdgeStyle;rounded=0;orthogonalLoop=1;jettySize=auto;html=1;entryX=1;entryY=0.5;entryDx=0;entryDy=0;" parent="1" source="G9q0YJzkAukDp6qlGBMy-360" target="G9q0YJzkAukDp6qlGBMy-83" edge="1">
          <mxGeometry relative="1" as="geometry" />
        </mxCell>
        <mxCell id="G9q0YJzkAukDp6qlGBMy-360" value="1,1" style="text;html=1;align=center;verticalAlign=middle;resizable=0;points=[];autosize=1;strokeColor=none;fillColor=none;" parent="1" vertex="1">
          <mxGeometry x="600" y="480" width="40" height="30" as="geometry" />
        </mxCell>
        <mxCell id="G9q0YJzkAukDp6qlGBMy-364" style="edgeStyle=orthogonalEdgeStyle;rounded=0;orthogonalLoop=1;jettySize=auto;html=1;entryX=0.5;entryY=0.067;entryDx=0;entryDy=0;entryPerimeter=0;" parent="1" source="G9q0YJzkAukDp6qlGBMy-363" target="G9q0YJzkAukDp6qlGBMy-369" edge="1">
          <mxGeometry relative="1" as="geometry">
            <mxPoint x="1155" y="790" as="targetPoint" />
          </mxGeometry>
        </mxCell>
        <mxCell id="G9q0YJzkAukDp6qlGBMy-363" value="Belong_to" style="rhombus;whiteSpace=wrap;html=1;" parent="1" vertex="1">
          <mxGeometry x="1190" y="455" width="80" height="80" as="geometry" />
        </mxCell>
        <mxCell id="G9q0YJzkAukDp6qlGBMy-367" style="edgeStyle=orthogonalEdgeStyle;rounded=0;orthogonalLoop=1;jettySize=auto;html=1;entryX=0.5;entryY=0;entryDx=0;entryDy=0;" parent="1" source="G9q0YJzkAukDp6qlGBMy-365" target="G9q0YJzkAukDp6qlGBMy-363" edge="1">
          <mxGeometry relative="1" as="geometry">
            <Array as="points">
              <mxPoint x="1310" y="455" />
            </Array>
          </mxGeometry>
        </mxCell>
        <mxCell id="G9q0YJzkAukDp6qlGBMy-365" value="N,1" style="text;html=1;align=center;verticalAlign=middle;resizable=0;points=[];autosize=1;strokeColor=none;fillColor=none;" parent="1" vertex="1">
          <mxGeometry x="1290" y="300" width="40" height="30" as="geometry" />
        </mxCell>
        <mxCell id="G9q0YJzkAukDp6qlGBMy-368" style="edgeStyle=orthogonalEdgeStyle;rounded=0;orthogonalLoop=1;jettySize=auto;html=1;exitX=1;exitY=0.5;exitDx=0;exitDy=0;entryX=0.533;entryY=0;entryDx=0;entryDy=0;entryPerimeter=0;" parent="1" source="G9q0YJzkAukDp6qlGBMy-140" target="G9q0YJzkAukDp6qlGBMy-365" edge="1">
          <mxGeometry relative="1" as="geometry" />
        </mxCell>
        <mxCell id="G9q0YJzkAukDp6qlGBMy-369" value="1,1" style="text;html=1;align=center;verticalAlign=middle;resizable=0;points=[];autosize=1;strokeColor=none;fillColor=none;" parent="1" vertex="1">
          <mxGeometry x="1170" y="750" width="40" height="30" as="geometry" />
        </mxCell>
        <mxCell id="G9q0YJzkAukDp6qlGBMy-372" style="edgeStyle=orthogonalEdgeStyle;rounded=0;orthogonalLoop=1;jettySize=auto;html=1;entryX=0.933;entryY=0.028;entryDx=0;entryDy=0;entryPerimeter=0;" parent="1" source="G9q0YJzkAukDp6qlGBMy-369" target="G9q0YJzkAukDp6qlGBMy-92" edge="1">
          <mxGeometry relative="1" as="geometry" />
        </mxCell>
        <mxCell id="G9q0YJzkAukDp6qlGBMy-375" style="edgeStyle=orthogonalEdgeStyle;rounded=0;orthogonalLoop=1;jettySize=auto;html=1;entryX=0.492;entryY=0.956;entryDx=0;entryDy=0;entryPerimeter=0;" parent="1" source="G9q0YJzkAukDp6qlGBMy-374" target="G9q0YJzkAukDp6qlGBMy-378" edge="1">
          <mxGeometry relative="1" as="geometry">
            <mxPoint x="1170" y="-430" as="targetPoint" />
          </mxGeometry>
        </mxCell>
        <mxCell id="G9q0YJzkAukDp6qlGBMy-374" value="Assigned&lt;br&gt;_to" style="rhombus;whiteSpace=wrap;html=1;" parent="1" vertex="1">
          <mxGeometry x="1150" y="-340" width="80" height="80" as="geometry" />
        </mxCell>
        <mxCell id="G9q0YJzkAukDp6qlGBMy-377" style="edgeStyle=orthogonalEdgeStyle;rounded=0;orthogonalLoop=1;jettySize=auto;html=1;entryX=0.5;entryY=1;entryDx=0;entryDy=0;" parent="1" source="G9q0YJzkAukDp6qlGBMy-376" target="G9q0YJzkAukDp6qlGBMy-374" edge="1">
          <mxGeometry relative="1" as="geometry" />
        </mxCell>
        <mxCell id="G9q0YJzkAukDp6qlGBMy-376" value="N,1" style="text;html=1;align=center;verticalAlign=middle;resizable=0;points=[];autosize=1;strokeColor=none;fillColor=none;" parent="1" vertex="1">
          <mxGeometry x="1190" y="-30" width="40" height="30" as="geometry" />
        </mxCell>
        <mxCell id="G9q0YJzkAukDp6qlGBMy-378" value="1,1" style="text;html=1;align=center;verticalAlign=middle;resizable=0;points=[];autosize=1;strokeColor=none;fillColor=none;" parent="1" vertex="1">
          <mxGeometry x="1200" y="-670" width="40" height="30" as="geometry" />
        </mxCell>
        <mxCell id="G9q0YJzkAukDp6qlGBMy-379" style="edgeStyle=orthogonalEdgeStyle;rounded=0;orthogonalLoop=1;jettySize=auto;html=1;" parent="1" source="G9q0YJzkAukDp6qlGBMy-378" edge="1">
          <mxGeometry relative="1" as="geometry">
            <mxPoint x="1193" y="-660" as="targetPoint" />
          </mxGeometry>
        </mxCell>
        <mxCell id="G9q0YJzkAukDp6qlGBMy-386" style="edgeStyle=orthogonalEdgeStyle;rounded=0;orthogonalLoop=1;jettySize=auto;html=1;" parent="1" source="G9q0YJzkAukDp6qlGBMy-385" edge="1">
          <mxGeometry relative="1" as="geometry">
            <mxPoint x="-770" y="380" as="targetPoint" />
            <Array as="points">
              <mxPoint x="1100" y="-950" />
              <mxPoint x="-770" y="-950" />
            </Array>
          </mxGeometry>
        </mxCell>
        <mxCell id="G9q0YJzkAukDp6qlGBMy-385" value="1,1" style="text;html=1;align=center;verticalAlign=middle;resizable=0;points=[];autosize=1;strokeColor=none;fillColor=none;" parent="1" vertex="1">
          <mxGeometry x="1080" y="-930" width="40" height="30" as="geometry" />
        </mxCell>
        <mxCell id="G9q0YJzkAukDp6qlGBMy-389" style="edgeStyle=orthogonalEdgeStyle;rounded=0;orthogonalLoop=1;jettySize=auto;html=1;exitX=0.5;exitY=1;exitDx=0;exitDy=0;" parent="1" source="G9q0YJzkAukDp6qlGBMy-387" target="G9q0YJzkAukDp6qlGBMy-388" edge="1">
          <mxGeometry relative="1" as="geometry" />
        </mxCell>
        <mxCell id="G9q0YJzkAukDp6qlGBMy-387" value="includes" style="rhombus;whiteSpace=wrap;html=1;" parent="1" vertex="1">
          <mxGeometry x="-810" y="380" width="80" height="80" as="geometry" />
        </mxCell>
        <mxCell id="G9q0YJzkAukDp6qlGBMy-388" value="1,N" style="text;html=1;align=center;verticalAlign=middle;resizable=0;points=[];autosize=1;strokeColor=none;fillColor=none;" parent="1" vertex="1">
          <mxGeometry x="-600" y="618" width="40" height="30" as="geometry" />
        </mxCell>
        <mxCell id="G9q0YJzkAukDp6qlGBMy-390" style="edgeStyle=orthogonalEdgeStyle;rounded=0;orthogonalLoop=1;jettySize=auto;html=1;entryX=0.028;entryY=-0.125;entryDx=0;entryDy=0;entryPerimeter=0;" parent="1" source="G9q0YJzkAukDp6qlGBMy-388" target="G9q0YJzkAukDp6qlGBMy-257" edge="1">
          <mxGeometry relative="1" as="geometry" />
        </mxCell>
        <mxCell id="G9q0YJzkAukDp6qlGBMy-392" value="Own" style="rhombus;whiteSpace=wrap;html=1;" parent="1" vertex="1">
          <mxGeometry x="470" y="-820" width="80" height="80" as="geometry" />
        </mxCell>
        <mxCell id="G9q0YJzkAukDp6qlGBMy-393" style="edgeStyle=orthogonalEdgeStyle;rounded=0;orthogonalLoop=1;jettySize=auto;html=1;exitX=0.5;exitY=1;exitDx=0;exitDy=0;entryX=0.375;entryY=0.021;entryDx=0;entryDy=0;entryPerimeter=0;" parent="1" source="G9q0YJzkAukDp6qlGBMy-392" target="G9q0YJzkAukDp6qlGBMy-285" edge="1">
          <mxGeometry relative="1" as="geometry" />
        </mxCell>
        <mxCell id="G9q0YJzkAukDp6qlGBMy-394" style="edgeStyle=orthogonalEdgeStyle;rounded=0;orthogonalLoop=1;jettySize=auto;html=1;exitX=0;exitY=0.5;exitDx=0;exitDy=0;" parent="1" source="G9q0YJzkAukDp6qlGBMy-188" target="G9q0YJzkAukDp6qlGBMy-395" edge="1">
          <mxGeometry relative="1" as="geometry">
            <mxPoint x="980" y="-510" as="targetPoint" />
          </mxGeometry>
        </mxCell>
        <mxCell id="G9q0YJzkAukDp6qlGBMy-396" style="edgeStyle=orthogonalEdgeStyle;rounded=0;orthogonalLoop=1;jettySize=auto;html=1;exitX=0.5;exitY=1;exitDx=0;exitDy=0;entryX=0.5;entryY=0;entryDx=0;entryDy=0;" parent="1" source="G9q0YJzkAukDp6qlGBMy-395" target="G9q0YJzkAukDp6qlGBMy-272" edge="1">
          <mxGeometry relative="1" as="geometry" />
        </mxCell>
        <mxCell id="G9q0YJzkAukDp6qlGBMy-395" value="Uses" style="rhombus;whiteSpace=wrap;html=1;" parent="1" vertex="1">
          <mxGeometry x="860" y="-440" width="80" height="80" as="geometry" />
        </mxCell>
        <mxCell id="G9q0YJzkAukDp6qlGBMy-397" style="edgeStyle=orthogonalEdgeStyle;rounded=0;orthogonalLoop=1;jettySize=auto;html=1;exitX=1;exitY=0.5;exitDx=0;exitDy=0;" parent="1" source="G9q0YJzkAukDp6qlGBMy-173" edge="1">
          <mxGeometry relative="1" as="geometry">
            <mxPoint x="1410" y="-310" as="targetPoint" />
          </mxGeometry>
        </mxCell>
        <mxCell id="G9q0YJzkAukDp6qlGBMy-399" style="edgeStyle=orthogonalEdgeStyle;rounded=0;orthogonalLoop=1;jettySize=auto;html=1;exitX=0.5;exitY=1;exitDx=0;exitDy=0;entryX=1;entryY=0.5;entryDx=0;entryDy=0;" parent="1" source="G9q0YJzkAukDp6qlGBMy-398" target="G9q0YJzkAukDp6qlGBMy-128" edge="1">
          <mxGeometry relative="1" as="geometry" />
        </mxCell>
        <mxCell id="G9q0YJzkAukDp6qlGBMy-398" value="Assigned_to" style="rhombus;whiteSpace=wrap;html=1;" parent="1" vertex="1">
          <mxGeometry x="1370" y="-310" width="80" height="80" as="geometry" />
        </mxCell>
        <mxCell id="G9q0YJzkAukDp6qlGBMy-402" style="edgeStyle=orthogonalEdgeStyle;rounded=0;orthogonalLoop=1;jettySize=auto;html=1;entryX=0;entryY=0.5;entryDx=0;entryDy=0;" parent="1" source="G9q0YJzkAukDp6qlGBMy-401" target="G9q0YJzkAukDp6qlGBMy-331" edge="1">
          <mxGeometry relative="1" as="geometry" />
        </mxCell>
        <mxCell id="G9q0YJzkAukDp6qlGBMy-401" value="Planned_in" style="rhombus;whiteSpace=wrap;html=1;" parent="1" vertex="1">
          <mxGeometry x="550" y="1140" width="80" height="80" as="geometry" />
        </mxCell>
        <mxCell id="G9q0YJzkAukDp6qlGBMy-405" style="edgeStyle=orthogonalEdgeStyle;rounded=0;orthogonalLoop=1;jettySize=auto;html=1;entryX=0;entryY=0.5;entryDx=0;entryDy=0;" parent="1" source="G9q0YJzkAukDp6qlGBMy-404" target="G9q0YJzkAukDp6qlGBMy-86" edge="1">
          <mxGeometry relative="1" as="geometry">
            <Array as="points">
              <mxPoint x="185" y="560" />
              <mxPoint x="320" y="560" />
            </Array>
          </mxGeometry>
        </mxCell>
        <mxCell id="G9q0YJzkAukDp6qlGBMy-404" value="Planned_by" style="rhombus;whiteSpace=wrap;html=1;" parent="1" vertex="1">
          <mxGeometry x="145" y="750" width="80" height="80" as="geometry" />
        </mxCell>
        <mxCell id="G9q0YJzkAukDp6qlGBMy-406" style="edgeStyle=orthogonalEdgeStyle;rounded=0;orthogonalLoop=1;jettySize=auto;html=1;exitX=0;exitY=0.5;exitDx=0;exitDy=0;entryX=0.5;entryY=1;entryDx=0;entryDy=0;" parent="1" source="G9q0YJzkAukDp6qlGBMy-238" target="G9q0YJzkAukDp6qlGBMy-407" edge="1">
          <mxGeometry relative="1" as="geometry">
            <mxPoint x="1180" y="1280" as="targetPoint" />
          </mxGeometry>
        </mxCell>
        <mxCell id="G9q0YJzkAukDp6qlGBMy-407" value="completed_in" style="rhombus;whiteSpace=wrap;html=1;" parent="1" vertex="1">
          <mxGeometry x="1110" y="1210" width="120" height="90" as="geometry" />
        </mxCell>
        <mxCell id="G9q0YJzkAukDp6qlGBMy-408" style="edgeStyle=orthogonalEdgeStyle;rounded=0;orthogonalLoop=1;jettySize=auto;html=1;exitX=0.5;exitY=0;exitDx=0;exitDy=0;entryX=0.483;entryY=1.11;entryDx=0;entryDy=0;entryPerimeter=0;" parent="1" source="G9q0YJzkAukDp6qlGBMy-407" target="G9q0YJzkAukDp6qlGBMy-331" edge="1">
          <mxGeometry relative="1" as="geometry">
            <Array as="points">
              <mxPoint x="1170" y="1055" />
              <mxPoint x="1107" y="1055" />
            </Array>
          </mxGeometry>
        </mxCell>
        <mxCell id="G9q0YJzkAukDp6qlGBMy-409" style="edgeStyle=orthogonalEdgeStyle;rounded=0;orthogonalLoop=1;jettySize=auto;html=1;exitX=0;exitY=0.5;exitDx=0;exitDy=0;entryX=0.5;entryY=1;entryDx=0;entryDy=0;" parent="1" source="G9q0YJzkAukDp6qlGBMy-253" target="G9q0YJzkAukDp6qlGBMy-410" edge="1">
          <mxGeometry relative="1" as="geometry">
            <mxPoint x="-270" y="1340" as="targetPoint" />
          </mxGeometry>
        </mxCell>
        <mxCell id="G9q0YJzkAukDp6qlGBMy-411" style="edgeStyle=orthogonalEdgeStyle;rounded=0;orthogonalLoop=1;jettySize=auto;html=1;exitX=0.5;exitY=0;exitDx=0;exitDy=0;entryX=0;entryY=0.5;entryDx=0;entryDy=0;" parent="1" source="G9q0YJzkAukDp6qlGBMy-410" target="G9q0YJzkAukDp6qlGBMy-80" edge="1">
          <mxGeometry relative="1" as="geometry">
            <Array as="points">
              <mxPoint x="-250" y="450" />
              <mxPoint x="330" y="450" />
              <mxPoint x="330" y="475" />
            </Array>
          </mxGeometry>
        </mxCell>
        <mxCell id="G9q0YJzkAukDp6qlGBMy-410" value="Completed_by" style="rhombus;whiteSpace=wrap;html=1;" parent="1" vertex="1">
          <mxGeometry x="-310" y="1190" width="120" height="80" as="geometry" />
        </mxCell>
        <mxCell id="G9q0YJzkAukDp6qlGBMy-412" style="edgeStyle=orthogonalEdgeStyle;rounded=0;orthogonalLoop=1;jettySize=auto;html=1;exitX=0;exitY=0.5;exitDx=0;exitDy=0;" parent="1" source="G9q0YJzkAukDp6qlGBMy-266" target="G9q0YJzkAukDp6qlGBMy-413" edge="1">
          <mxGeometry relative="1" as="geometry">
            <mxPoint x="-1010" y="-1290" as="targetPoint" />
          </mxGeometry>
        </mxCell>
        <mxCell id="G9q0YJzkAukDp6qlGBMy-414" style="edgeStyle=orthogonalEdgeStyle;rounded=0;orthogonalLoop=1;jettySize=auto;html=1;exitX=1;exitY=0.5;exitDx=0;exitDy=0;entryX=0.75;entryY=0;entryDx=0;entryDy=0;" parent="1" source="G9q0YJzkAukDp6qlGBMy-413" target="G9q0YJzkAukDp6qlGBMy-160" edge="1">
          <mxGeometry relative="1" as="geometry" />
        </mxCell>
        <mxCell id="G9q0YJzkAukDp6qlGBMy-413" value="belongs_to" style="rhombus;whiteSpace=wrap;html=1;" parent="1" vertex="1">
          <mxGeometry x="-1050" y="-1330" width="240" height="190" as="geometry" />
        </mxCell>
        <mxCell id="G9q0YJzkAukDp6qlGBMy-415" style="edgeStyle=orthogonalEdgeStyle;rounded=0;orthogonalLoop=1;jettySize=auto;html=1;exitX=1;exitY=0.5;exitDx=0;exitDy=0;entryX=0.5;entryY=1;entryDx=0;entryDy=0;" parent="1" source="G9q0YJzkAukDp6qlGBMy-266" target="G9q0YJzkAukDp6qlGBMy-416" edge="1">
          <mxGeometry relative="1" as="geometry">
            <mxPoint x="-100" y="610" as="targetPoint" />
          </mxGeometry>
        </mxCell>
        <mxCell id="G9q0YJzkAukDp6qlGBMy-417" style="edgeStyle=orthogonalEdgeStyle;rounded=0;orthogonalLoop=1;jettySize=auto;html=1;exitX=1;exitY=0;exitDx=0;exitDy=0;entryX=0;entryY=0.5;entryDx=0;entryDy=0;" parent="1" source="G9q0YJzkAukDp6qlGBMy-416" target="G9q0YJzkAukDp6qlGBMy-83" edge="1">
          <mxGeometry relative="1" as="geometry" />
        </mxCell>
        <mxCell id="G9q0YJzkAukDp6qlGBMy-416" value="led_by" style="rhombus;whiteSpace=wrap;html=1;" parent="1" vertex="1">
          <mxGeometry x="-140" y="540" width="150" height="100" as="geometry" />
        </mxCell>
        <mxCell id="G9q0YJzkAukDp6qlGBMy-418" style="edgeStyle=orthogonalEdgeStyle;rounded=0;orthogonalLoop=1;jettySize=auto;html=1;exitX=1;exitY=0.5;exitDx=0;exitDy=0;" parent="1" source="G9q0YJzkAukDp6qlGBMy-273" target="G9q0YJzkAukDp6qlGBMy-419" edge="1">
          <mxGeometry relative="1" as="geometry">
            <mxPoint x="1080" y="-379.99999999999955" as="targetPoint" />
          </mxGeometry>
        </mxCell>
        <mxCell id="G9q0YJzkAukDp6qlGBMy-420" style="edgeStyle=orthogonalEdgeStyle;rounded=0;orthogonalLoop=1;jettySize=auto;html=1;exitX=0.5;exitY=0;exitDx=0;exitDy=0;" parent="1" source="G9q0YJzkAukDp6qlGBMy-419" edge="1">
          <mxGeometry relative="1" as="geometry">
            <mxPoint x="1120" y="-578" as="targetPoint" />
            <Array as="points">
              <mxPoint x="1080" y="-510" />
              <mxPoint x="1110" y="-510" />
              <mxPoint x="1110" y="-578" />
            </Array>
          </mxGeometry>
        </mxCell>
        <mxCell id="G9q0YJzkAukDp6qlGBMy-419" value="used_in" style="rhombus;whiteSpace=wrap;html=1;" parent="1" vertex="1">
          <mxGeometry x="1040" y="-419.99999999999955" width="80" height="80" as="geometry" />
        </mxCell>
        <mxCell id="G9q0YJzkAukDp6qlGBMy-421" value="N,1" style="text;html=1;align=center;verticalAlign=middle;resizable=0;points=[];autosize=1;strokeColor=none;fillColor=none;" parent="1" vertex="1">
          <mxGeometry x="1320" y="1260" width="40" height="30" as="geometry" />
        </mxCell>
        <mxCell id="G9q0YJzkAukDp6qlGBMy-422" value="1,1" style="text;html=1;align=center;verticalAlign=middle;resizable=0;points=[];autosize=1;strokeColor=none;fillColor=none;" parent="1" vertex="1">
          <mxGeometry x="1110" y="918" width="40" height="30" as="geometry" />
        </mxCell>
        <mxCell id="G9q0YJzkAukDp6qlGBMy-423" value="N,1" style="text;html=1;align=center;verticalAlign=middle;resizable=0;points=[];autosize=1;strokeColor=none;fillColor=none;" parent="1" vertex="1">
          <mxGeometry x="1320" y="1368" width="40" height="30" as="geometry" />
        </mxCell>
        <mxCell id="G9q0YJzkAukDp6qlGBMy-424" value="1,1" style="text;html=1;align=center;verticalAlign=middle;resizable=0;points=[];autosize=1;strokeColor=none;fillColor=none;" parent="1" vertex="1">
          <mxGeometry x="280" y="448" width="40" height="30" as="geometry" />
        </mxCell>
        <mxCell id="G9q0YJzkAukDp6qlGBMy-425" value="N,1" style="text;html=1;align=center;verticalAlign=middle;resizable=0;points=[];autosize=1;strokeColor=none;fillColor=none;" parent="1" vertex="1">
          <mxGeometry x="-590" y="750" width="40" height="30" as="geometry" />
        </mxCell>
        <mxCell id="G9q0YJzkAukDp6qlGBMy-426" value="1,1" style="text;html=1;align=center;verticalAlign=middle;resizable=0;points=[];autosize=1;strokeColor=none;fillColor=none;" parent="1" vertex="1">
          <mxGeometry x="1140" y="-930" width="40" height="30" as="geometry" />
        </mxCell>
        <mxCell id="G9q0YJzkAukDp6qlGBMy-427" value="N,1" style="text;html=1;align=center;verticalAlign=middle;resizable=0;points=[];autosize=1;strokeColor=none;fillColor=none;" parent="1" vertex="1">
          <mxGeometry x="-370" y="738" width="40" height="30" as="geometry" />
        </mxCell>
        <mxCell id="G9q0YJzkAukDp6qlGBMy-428" value="1,1" style="text;html=1;align=center;verticalAlign=middle;resizable=0;points=[];autosize=1;strokeColor=none;fillColor=none;" parent="1" vertex="1">
          <mxGeometry x="280" y="505" width="40" height="30" as="geometry" />
        </mxCell>
        <mxCell id="G9q0YJzkAukDp6qlGBMy-429" value="M,N" style="text;html=1;align=center;verticalAlign=middle;resizable=0;points=[];autosize=1;strokeColor=none;fillColor=none;" parent="1" vertex="1">
          <mxGeometry x="1035" y="-212" width="50" height="30" as="geometry" />
        </mxCell>
        <mxCell id="G9q0YJzkAukDp6qlGBMy-430" value="M,N" style="text;html=1;align=center;verticalAlign=middle;resizable=0;points=[];autosize=1;strokeColor=none;fillColor=none;" parent="1" vertex="1">
          <mxGeometry x="1115" y="-572" width="50" height="30" as="geometry" />
        </mxCell>
        <mxCell id="G9q0YJzkAukDp6qlGBMy-431" value="M,N" style="text;html=1;align=center;verticalAlign=middle;resizable=0;points=[];autosize=1;strokeColor=none;fillColor=none;" parent="1" vertex="1">
          <mxGeometry x="970" y="-630" width="50" height="30" as="geometry" />
        </mxCell>
        <mxCell id="G9q0YJzkAukDp6qlGBMy-432" value="M,N" style="text;html=1;align=center;verticalAlign=middle;resizable=0;points=[];autosize=1;strokeColor=none;fillColor=none;" parent="1" vertex="1">
          <mxGeometry x="900" y="-290" width="50" height="30" as="geometry" />
        </mxCell>
        <mxCell id="G9q0YJzkAukDp6qlGBMy-433" value="N,1" style="text;html=1;align=center;verticalAlign=middle;resizable=0;points=[];autosize=1;strokeColor=none;fillColor=none;" parent="1" vertex="1">
          <mxGeometry x="100" y="958" width="40" height="30" as="geometry" />
        </mxCell>
        <mxCell id="G9q0YJzkAukDp6qlGBMy-434" value="1,1" style="text;html=1;align=center;verticalAlign=middle;resizable=0;points=[];autosize=1;strokeColor=none;fillColor=none;" parent="1" vertex="1">
          <mxGeometry x="280" y="560" width="40" height="30" as="geometry" />
        </mxCell>
        <mxCell id="G9q0YJzkAukDp6qlGBMy-435" value="N,1" style="text;html=1;align=center;verticalAlign=middle;resizable=0;points=[];autosize=1;strokeColor=none;fillColor=none;" parent="1" vertex="1">
          <mxGeometry x="210" y="958" width="40" height="30" as="geometry" />
        </mxCell>
        <mxCell id="G9q0YJzkAukDp6qlGBMy-436" value="1,1" style="text;html=1;align=center;verticalAlign=middle;resizable=0;points=[];autosize=1;strokeColor=none;fillColor=none;" parent="1" vertex="1">
          <mxGeometry x="980" y="860" width="40" height="30" as="geometry" />
        </mxCell>
        <mxCell id="G9q0YJzkAukDp6qlGBMy-437" value="1,1" style="text;html=1;align=center;verticalAlign=middle;resizable=0;points=[];autosize=1;strokeColor=none;fillColor=none;" parent="1" vertex="1">
          <mxGeometry x="1190" y="-782" width="40" height="30" as="geometry" />
        </mxCell>
        <mxCell id="G9q0YJzkAukDp6qlGBMy-439" value="1,N" style="text;html=1;align=center;verticalAlign=middle;resizable=0;points=[];autosize=1;strokeColor=none;fillColor=none;" parent="1" vertex="1">
          <mxGeometry x="1290" y="140" width="40" height="30" as="geometry" />
        </mxCell>
        <mxCell id="G9q0YJzkAukDp6qlGBMy-440" value="1,1" style="text;html=1;align=center;verticalAlign=middle;resizable=0;points=[];autosize=1;strokeColor=none;fillColor=none;" parent="1" vertex="1">
          <mxGeometry x="960" y="-892" width="40" height="30" as="geometry" />
        </mxCell>
        <mxCell id="G9q0YJzkAukDp6qlGBMy-441" value="1,N" style="text;html=1;align=center;verticalAlign=middle;resizable=0;points=[];autosize=1;strokeColor=none;fillColor=none;" parent="1" vertex="1">
          <mxGeometry x="215" y="-630" width="40" height="30" as="geometry" />
        </mxCell>
      </root>
    </mxGraphModel>
  </diagram>
</mxfile>
